<svg width="26" height="22" fill="none" xmlns="http://www.w3.org/2000/svg"><path d="M4.158 18.5c0 1.38 1.131 2.5 2.526 2.5 1.395 0 2.527-1.12 2.527-2.5m-5.053 0c0-1.38 1.131-2.5 2.526-2.5 1.395 0 2.527 1.12 2.527 2.5m-5.053 0H1m8.21 0H25M16.79 11c0 1.38 1.13 2.5 2.526 2.5 1.395 0 2.526-1.12 2.526-2.5m-5.052 0c0-1.38 1.13-2.5 2.526-2.5 1.395 0 2.526 1.12 2.526 2.5m-5.052 0H1m20.842 0H25M13 3.5C13 2.12 11.869 1 10.474 1 9.078 1 7.947 2.12 7.947 3.5M13 3.5C13 4.88 11.869 6 10.474 6 9.078 6 7.947 4.88 7.947 3.5M13 3.5h12m-17.053 0H1" stroke="#fff" stroke-width="2" stroke-linecap="square"/></svg>