<svg width="928" height="812" fill="none" xmlns="http://www.w3.org/2000/svg"><rect x="741.726" y="-59.411" width="1156.6" height="57.178" rx="6" transform="rotate(120 741.726 -59.41)" fill="#E14443"/><path d="M308.199 351.644c5.59-7.526 26.754-7.08 34.026-7.082.756.015 1.617.502 2.009 1.134 41.196-65.894 77.558-124.246 77.558-124.246 20.066-31.399 32.651-63.734 50.381-89.878 17.73-26.144 46.547-46.439 77.319-51.25 16.936-2.763 28.582-5.637 35.615-7.829 6.095-1.899 12.506-2.388 18.476-1.482 44.708 5.934 78.697 22.249 78.697 22.249s31.623 20.321 59.05 55.528c3.787 4.603 6.378 10.585 7.925 16.389 1.576 7.053 4.854 18.353 10.875 34.078 10.552 28.144 7.276 62.86-7.01 90.949-14.287 28.088-36.916 54.753-54.399 87.609 0 0-33.492 59.973-71.245 127.811.756.016 1.33.34 2.009 1.134 4.102 6.014 14.61 23.862 10.741 32.36-4.778 10.038-8.011 9.034-13.52 3.458-2.611-2.706-7.288-9.044-11.39-15.058-42.013 75.703-85.664 154.18-92.653 166.668-13.692 25.137-49.036 99.265-107.667 120.803-58.813 21.847-124.033-14.157-143.834-25.337-19.801-11.181-84.111-48.725-94.354-109.151-10.061-60.735 37.728-127.426 53.142-151.591 7.563-12.163 55.232-88.371 101.263-161.807-7.377-.467-15.327-1.259-19.03-2.117-7.979-2.04-10.484-4.276-3.984-13.342z" fill="#fff"/><path d="M308.195 351.639c1.924-2.611 5.388-3.942 8.201-4.818 3.1-.715 6.2-1.43 9.406-1.674 3.205-.244 6.41-.489 9.433-.425l4.536.096c1.511.031 3.205-.245 4.276 1.182l65.263-104.07 16.505-26.013c5.563-8.774 10.369-17.564 15.07-26.824 9.508-18.049 18.155-36.585 29.384-53.663 5.563-8.774 12.091-16.591 19.585-23.452 7.494-6.862 15.667-12.929 24.338-17.894 8.67-4.964 18.124-8.665 27.607-11.117 4.794-.99 9.587-1.981 14.668-2.81l14.382-2.972c9.587-1.982 18.936-6.153 28.58-5.638 9.462.824 19.135 2.588 28.156 4.806 18.512 4.29 36.87 10.136 53.668 17.977 15.993 9.852 30.062 22.315 43.117 35.849 6.293 6.84 12.691 14.15 18.151 21.752 2.639 3.956 4.34 8.203 5.391 12.905a145.92 145.92 0 003.907 14.121l4.559 13.666c1.519 4.556 3.508 8.965 4.558 13.667 2.57 9.257 4.021 19.115 3.96 28.94-.062 9.826-1.348 19.782-3.676 29.56-2.329 9.778-6.275 19.053-10.794 28.005-9.508 18.05-21.885 34.479-33.115 51.557-5.849 8.612-11.229 17.077-16.218 26.175l-15.07 26.824-59.811 107.148-1.091 1.849 2.085.356.861.486 1.176 1.896 2.352 3.793c1.568 2.529 2.955 5.366 4.054 8.041 1.386 2.837 2.485 5.512 2.934 8.641.63 2.821 1.079 5.95-.195 8.107-.727 1.233-1.35 2.935-2.365 4.006-.727 1.232-1.742 2.303-2.498 2.287-.755-.016-1.798-.194-3.051-1.312-.966-.957-2.219-2.075-3.185-3.031a169.21 169.21 0 01-10.815-14.735l-1.463-2.058-1.456 2.465-62.693 113.327-31.203 56.744c-10.054 18.974-20.394 37.786-32.744 55.464-6.318 8.758-12.923 17.354-20.207 25.155-7.284 7.802-15.429 15.117-23.784 21.493l-6.508 4.542c-2.134 1.671-4.66 2.709-6.899 3.91-4.374 2.872-9.532 4.479-14.297 6.718-9.742 3.538-19.98 5.974-29.883 6.545l-3.674.391-3.779-.08c-2.736.099-5.004.051-7.74.149-5.109-.419-10.113-.369-14.858-1.405-10.036-1.147-19.632-3.689-29.045-6.539-19.114-5.863-37.242-14.044-54.46-23.766-17.218-9.722-33.708-20.676-48.456-33.934-7.231-6.548-14.385-13.874-20.601-21.492-3.108-3.809-6.034-7.926-8.96-12.043-1.463-2.059-2.457-4.264-3.738-6.631l-1.96-3.161-1.491-3.307c-4.733-8.834-7.226-18.87-9.433-28.743-.399-5.156-1.268-10.166-1.199-15.468-.056-2.497-.113-4.994.013-7.799l.768-7.783c1.181-10.426 3.587-20.982 6.853-31.052 3.267-10.07 7.289-20.125 11.885-29.855 9.193-19.46 20.681-37.624 32.638-55.934l34.36-54.962 68.72-109.924c-6.152-.597-12.485-.887-18.742-1.955-1.33-.34-3.129-.533-4.563-1.344-1.148-.648-3.052-1.312-3.185-3.03-.602-1.573.307-3.114.93-4.816.65-.455 1.847-1.833 2.575-3.066zm0 0c-.91 1.541-1.925 2.611-2.834 4.152-.91 1.541-1.532 3.243-.93 4.816s2.037 2.383 3.185 3.031c1.617.502 2.946.842 4.563 1.344 6.257 1.068 12.409 1.665 18.742 1.955l-69.006 109.762-34.647 54.8c-11.776 18.001-23.446 36.474-32.925 55.772-4.597 9.73-8.906 19.622-12.173 29.692-3.448 10.378-5.672 20.626-7.321 31.198l-.769 7.783c-.412 2.643-.069 5.302-.012 7.799-.07 5.302.799 10.312 1.199 15.468 2.024 10.182 4.518 20.217 9.25 29.052l1.778 3.469 1.96 3.161c1.282 2.367 2.458 4.263 3.739 6.63 2.926 4.117 5.383 8.381 8.778 12.352 6.034 7.926 13.37 14.944 20.419 21.8 14.748 13.258 31.343 24.682 48.561 34.404 17.218 9.722 35.451 18.373 54.565 24.236a194.665 194.665 0 0029.332 6.701c4.927.728 10.217.84 15.145 1.567 2.554.21 5.003-.05 7.74-.148l3.779.079 3.961-.228c10.372-.718 20.61-3.153 30.638-6.53 4.766-2.239 9.924-3.846 14.479-7.026 2.239-1.2 4.948-2.547 6.9-3.91l6.508-4.542c8.824-6.522 16.787-13.529 24.253-21.639 7.284-7.801 14.358-16.543 20.676-25.301 12.636-17.516 23.158-36.636 33.212-55.61l31.49-56.583 62.98-113.164-2.918.406c3.605 4.912 7.028 10.131 11.102 14.897 1.253 1.118 2.037 2.382 3.472 3.192 1.253 1.119 2.975 2.091 5.424 1.831 2.345-.731 3.723-2.418 4.92-3.796l2.728-4.622c1.714-3.552 1.056-7.621.425-10.442-.735-3.291-2.121-6.128-3.326-9.273-1.386-2.837-2.772-5.674-4.34-8.203l-2.352-3.793-1.176-1.897c-.497-1.102-1.645-1.75-2.688-1.928l.994 2.204 59.524-107.31 14.783-26.985c4.807-8.79 10.369-17.564 16.218-26.176 11.23-17.077 23.32-33.668 33.01-52.026 4.988-9.098 8.829-18.844 11.157-28.622 2.511-10.086 3.797-20.042 3.571-30.03.062-9.825-1.207-19.991-4.064-29.41-1.338-4.864-3.326-9.273-4.845-13.829l-4.559-13.667c-1.519-4.555-2.57-9.257-3.907-14.121-1.338-4.863-3.144-9.581-5.784-13.536-5.747-7.764-11.858-14.912-18.437-21.914-11.83-13.664-25.899-26.128-41.816-36.758-17.267-7.695-35.625-13.541-54.136-17.831-9.491-2.072-18.876-3.674-28.625-4.66-4.822-.257-9.903.572-14.592 2.033a154.459 154.459 0 01-14.458 3.75c-4.794.992-9.587 1.983-14.381 2.973-4.794.991-9.693 1.512-14.668 2.81a117.962 117.962 0 00-28.076 11.264c-8.671 4.965-17.313 11.178-24.52 18.201-7.494 6.861-14.204 14.987-19.766 23.761-11.23 17.077-19.772 36.083-29.28 54.133-4.701 9.26-9.507 18.05-15.07 26.824l-16.218 26.175-65.158 104.54c-1.071-1.427-2.947-.842-4.276-1.182l-4.535-.096c-3.024-.064-6.229.181-9.434.425-3.206.245-6.306.959-9.406 1.674-2.344.73-5.339 1.915-7.732 4.672z" fill="#fff"/><path d="M227.414 766.712c-20.319-11.483-85.595-49.604-96.123-111.326-10.529-61.722 38.322-129.666 54.057-154.401 15.734-24.735 195.696-313.028 195.696-313.028 20.661-31.793 33.002-65.008 51.046-91.719 17.862-26.403 47.249-47.114 78.871-52.208 17.357-2.903 29.152-6.08 35.984-7.96 6.079-1.896 12.653-2.691 18.893-1.626 45.52 5.631 80.273 22.4 80.273 22.4s31.927 20.914 60.136 56.541c3.881 5.064 6.36 10.566 8.008 16.828 1.571 7.04 4.84 18.319 10.949 34.485 11.018 29.191 7.674 64.62-6.754 92.964-14.896 28.49-37.826 55.72-55.625 89.131 0 0-165.081 296.702-179.098 322.408-14.017 25.706-49.704 101.089-109.576 123.026-60.053 22.244-126.418-14.032-146.737-25.515z" fill="#212F60"/><path d="M596.746 483.752c1.621-.76 2.976-.415 3.775.871 3.992 6.428 15.278 24.907 11.327 33.555-5.066 10.529-8.362 9.51-14.081 3.364-3.937-3.889-11.309-15.147-16.179-22.07-2.289-3.379-.566-8.263 3.152-9.933l12.006-5.787z" fill="#212F60"/><path d="M596.8 483.75c1.142-.612 2.498-.267 3.375.227.692.807 1.198 1.928 1.889 2.735 1.198 1.929 2.21 4.171 3.407 6.099a65.254 65.254 0 015.194 12.957c1.253 4.469 2.028 9.086-.386 13.162-1.114 1.881-2.414 4.076-3.927 5.315-.664.462-1.142.611-2.019.117l-2.34-1.316c-3.43-2.768-6.011-6.311-8.884-10.018-2.873-3.708-5.454-7.251-8.327-10.959l-1.889-2.735c-.692-.808-1.198-1.929-1.411-2.885-.242-2.226.766-4.586 2.465-6.138 3.797-2.461 8.471-4.429 12.853-6.561zm0 0l-6.48 3.041c-2.284 1.223-4.489 1.654-6.48 3.042-1.991 1.387-3.477 3.896-3.607 6.749.028 1.27.348 2.705 1.04 3.512l1.703 3.049c2.395 3.857 4.79 7.714 7.478 11.735 2.581 3.543 5.268 7.564 9.098 10.974a7.552 7.552 0 003.509 1.975c1.355.345 3.375.227 4.702-.698 2.655-1.85 3.848-4.523 4.856-6.882.557-.941 1.007-2.36 1.165-3.943.158-1.584.13-2.854.102-4.123-.348-2.705-1.067-4.782-1.787-6.859-1.731-4.32-3.94-8.49-6.335-12.346l-3.593-5.785c-.692-.808-1.198-1.929-1.889-2.736-1.277-1.137-2.34-1.317-3.482-.705z" fill="#fff"/><path d="M294.869 309.185c-.134-1.748-1.119-2.72-2.66-2.751-7.707-.157-29.763-.447-35.469 7.213-6.821 9.542-4.267 11.815 4.052 13.571 5.423 1.38 19.109 1.976 27.693 2.626 4.146.243 7.623-3.653 7.247-7.628l-.863-13.031z" fill="#212F60"/><path d="M294.885 309.153c-.027-1.271-1.012-2.243-1.889-2.737-1.063-.18-2.312-.047-3.376-.227l-6.936-.141c-4.624-.094-9.434.126-14.138.824-2.205.431-4.888 1.011-6.987 1.921-1.142.611-2.284 1.223-3.612 2.148-1.328.925-2.071 2.18-2.921 2.956-1.3 2.196-2.892 4.226-3.686 7.543-.158 1.584.561 3.662 1.731 4.32.985.973 2.34 1.317 3.51 1.976 4.652 1.364 9.383 1.936 14.3 2.195 4.625.094 9.541.353 14.166.447l3.561-.087c1.249-.133 2.498-.266 3.64-.878 2.284-1.223 4.062-3.567 4.192-6.422-.055-2.54-.297-4.767-.538-6.993l-1.017-6.845zm0 0c.297 4.767.594 9.534.599 14.136-.237 2.376-2.122 4.242-4.22 5.152-.957.298-2.206.431-3.269.251l-3.375-.227c-4.732-.573-9.17-.98-13.901-1.553-4.731-.572-9.17-.979-13.344-2.493-1.063-.18-1.94-.674-2.34-1.317a1.782 1.782 0 01-.905-1.764c.158-1.584 1.458-3.779 2.758-5.975 1.936-3.928 6.904-5.731 11.501-6.908a69.52 69.52 0 0114.109-2.093c2.498-.267 4.81-.22 7.122-.173 1.064.18 2.313.047 3.376.227.877.494 1.676 1.78 1.889 2.737zm319.741 40.506l-10.543 17.861c-1.438-5.328-4.02-11.303-7.357-17.294l11.451-19.4c4.488 11.157 6.449 18.833 6.449 18.833z" fill="#fff"/><path d="M614.63 349.67c-3.924 6-7.666 11.691-11.408 17.382l1.978-.115c-1.465-6.578-4.231-12.247-7.179-17.608l.028 1.248c3.819-6.469 7.638-12.938 11.171-19.569l-1.797-.193 7.207 18.855zm0 0c-1.284-6.886-3.217-13.317-5.333-19.44l-.419-1.88-1.091 1.849c-4.106 6.307-7.925 12.776-11.744 19.245l-.364.616.391.632c2.948 5.361 5.714 11.03 7.543 16.992l.705 2.041 1.091-1.849c2.883-6.176 6.052-12.191 9.221-18.206zm-24.158-53.639c3.231 5.519 5.994 11.184 8.652 16.38l-13.264 22.473c-5.548-8.059-10.106-13.917-10.106-13.917l14.718-24.936z" fill="#fff"/><path d="M590.498 295.994c2.871 6.14 5.065 11.487 7.545 16.996l.078-.778c-4.654 7.234-9.203 14.937-13.57 22.333l1.979-.115c-3.495-4.438-6.807-9.185-10.302-13.623l.027 1.249c2.366-4.006 4.445-8.174 6.992-12.488l7.251-13.574zm0 0l-7.852 12.002c-2.834 4.152-5.381 8.466-7.929 12.78l-.364.617.392.632c3.313 4.746 6.521 9.022 9.833 13.768l1.07 1.426 1.091-1.849c4.367-7.396 8.916-15.1 12.997-22.657l.364-.617-.105-.47c-2.949-5.362-6.653-10.74-9.497-15.632zm16.897 34.149l-11.45 19.397a306.491 306.491 0 00-8.99-14.519l13.267-22.476c2.686 6.443 5.268 12.417 7.173 17.598z" fill="#fff"/><path d="M607.417 330.146a5379.675 5379.675 0 01-12.323 18.928l1.692-.277c-2.844-4.892-5.688-9.785-8.819-14.839l.028 1.248c4.367-7.396 8.916-15.1 12.996-22.657l-1.511-.031c2.403 6.287 4.884 11.796 7.937 17.628zm0 0c-2.011-5.655-4.128-11.78-6.426-17.597l-.601-1.572-.91 1.541c-4.653 7.234-9.202 14.938-13.569 22.333l-.364.617.391.631c3.026 4.585 6.157 9.639 9.183 14.224l1.07 1.425.909-1.541c3.248-6.795 6.783-13.428 10.317-20.061zM401.316 226.672l-10.543 17.86c5.436-1.446 12.018-2.246 18.99-2.415l11.452-19.4c-11.836 1.938-19.899 3.955-19.899 3.955z" fill="#fff"/><path d="M401.322 226.674a8554.749 8554.749 0 00-11.408 17.382l-1.091 1.848 2.16-.423c6.194-1.432 12.597-1.924 18.819-2.108l.755.016.363-.616c3.82-6.47 7.639-12.939 11.172-19.57l1.091-1.848-1.874.585c-6.585.8-13.247 2.378-19.987 4.734zm0 0l20.301-3.324-1.069-1.425c-4.105 6.307-7.925 12.776-11.744 19.245l1.119-.6c-6.222.184-12.912.514-19.183 2.724l1.069 1.425c3.274-5.545 6.443-11.56 9.507-18.045zm58.901-6.017c-6.502.022-12.899.514-18.828.86l-13.264 22.474c9.909.67 17.374 1.603 17.374 1.603l14.718-24.937z" fill="#fff"/><path d="M460.268 220.627c-5.754.038-12.263.06-18.773.082l-.468.147-.364.616c-4.652 7.233-9.2 14.935-13.566 22.33l-1.092 1.848 1.797.193c5.859.432 11.249 1.01 17.108 1.443l1.119-.601.364-.616c2.547-4.314 4.807-8.789 7.354-13.102l6.521-12.34zm0 0l-8.213 12.617c-2.652 3.843-5.199 8.157-7.563 12.162l1.119-.601c-5.677-.74-11.536-1.172-17.213-1.912l.887 1.733c4.366-7.394 8.914-15.097 12.993-22.653l-.65.454c5.936-.346 12.236-1.308 18.64-1.8z" fill="#fff"/><path d="M422.161 223.365l-11.449 19.397a322.16 322.16 0 0117.351.356l13.266-22.476a281.107 281.107 0 00-19.168 2.723z" fill="#fff"/><path d="M422.162 223.356c-3.924 6-8.211 12.615-12.317 18.922l-.909 1.541 1.796.192c5.571.271 11.429.703 17.182.665l.468-.146.364-.616c4.365-7.394 8.912-15.095 12.99-22.65l.909-1.54-1.691.277c-6.299.962-12.779 2.232-18.792 3.355zm0 0c6.69-.33 12.807-.984 18.924-1.637l-.783-1.264c-4.651 7.232-9.198 14.933-13.563 22.326l1.119-.6c-5.753.037-11.611-.395-17.546-.049l1.069 1.425a11902.93 11902.93 0 0110.78-20.201zm83.343-172.162s-32.535-5.132-50.508 23.973l27.788-5.807c4.364-.843 7.935-2.96 11.002-6.187l11.718-11.979zm209.406 121.264s20.817 24.96 4.003 54.719l-8.746-26.414c-1.435-4.114-1.344-8.193-.017-12.401l4.76-15.904zm-49.777-75.145c-3.71 9.59-7.876 19.322-12.042 29.055-4.165 9.732-8.435 19.001-12.88 28.573a1969.031 1969.031 0 01-27.336 56.648c-9.17 18.984-18.724 37.344-28.174 56.167l-28.734 55.846 15.853-27.273 15.294-27.593a1992.286 1992.286 0 0029.013-55.686c9.171-18.984 18.165-37.664 26.777-56.969 7.875-19.322 15.928-38.947 22.229-58.768zM595.28 56.94c-14.127 15.33-26.929 32.226-39.555 48.82-12.346 16.754-24.589 33.971-36.273 51.509a2100.613 2100.613 0 00-34.036 52.793l-16.407 26.949-15.848 27.269 34.316-52.632c11.683-17.538 22.911-34.934 34.874-52.312 11.684-17.538 23.471-34.613 35.714-51.83 6.121-8.609 12.067-16.915 18.468-25.363 5.841-8.77 12.242-17.218 18.747-25.203zM461.64 77.42c-14.056 19.754-27.657 39.365-41.155 59.44-13.499 20.075-26.543 40.007-39.762 60.242-12.941 20.395-26.16 40.63-38.543 61.346-12.662 20.556-25.044 41.272-36.312 62.629 6.243-10.126 12.662-20.556 19.184-30.522 6.243-10.126 12.94-20.395 19.184-30.522 12.94-20.395 26.159-40.63 39.203-60.562l39.204-60.563 19.742-30.201 19.255-31.288zm252.418 145.751l-16.677 31.967-16.399 32.128-33.076 64.094c-10.991 21.519-22.085 42.576-33.076 64.095-5.408 10.608-11.27 21.359-16.957 31.807-5.407 10.608-11.548 21.198-16.956 31.806 12.664-20.557 24.492-41.595 36.319-62.633 11.549-21.199 22.819-42.558 34.089-63.916 10.99-21.52 21.981-43.039 32.518-64.415 9.803-21.395 20.061-42.933 30.215-64.933zM515.146 51.925c-15.203 17.158-29.287 34.957-43.268 53.219-13.981 18.263-27.225 36.543-40.646 55.126-12.862 18.904-26.003 37.647-38.024 57.032-6.379 9.684-12.022 19.385-18.121 29.229a611.525 611.525 0 00-17.282 29.711c12.582-19.065 24.883-38.289 37.465-57.354 12.581-19.064 25.443-37.968 38.864-56.551 12.861-18.904 26.385-37.023 39.806-55.607 13.421-18.583 27.402-36.845 41.206-54.805zm194.497 112.38c-8.488 21.006-17.712 41.995-26.936 62.984-9.504 20.829-18.551 41.514-28.615 62.022-9.783 20.668-19.846 41.176-29.91 61.684-10.063 20.508-20.686 40.695-31.309 60.882l17.282-29.711c5.539-10.164 10.903-20.026 16.442-30.191 10.623-20.187 20.687-40.695 30.75-61.203 9.784-20.668 19.007-41.657 27.775-62.503 8.664-21.31 17.152-42.316 24.521-63.964z" fill="#fff"/><path d="M190.161 550.41a548.149 548.149 0 00-15.015 29.553c-4.665 9.911-9.226 20.286-13.327 30.517a575.795 575.795 0 00-11.461 31.176c-3.539 10.553-6.619 20.962-8.855 31.852 1.999-5.348 3.539-10.552 5.642-15.436 1.821-5.044 3.82-10.392 5.641-15.436 4.102-10.231 7.922-20.623 12.024-30.855l12.587-30.533 12.764-30.838zm250.181 144.322l-20.466 26.04-20.466 26.039c-6.915 8.626-13.831 17.252-21.028 25.718-3.51 4.081-7.197 8.466-10.707 12.546-3.687 4.385-7.197 8.466-10.707 12.547 8.145-7.519 15.727-15.36 23.487-23.504a581.04 581.04 0 0021.591-25.398 542.835 542.835 0 0020.081-26.664c6.175-8.643 12.247-17.751 18.215-27.324z" fill="#fff" stroke="#fff" stroke-width="2"/><path d="M500.547 302.698c-84.59-47.757-146.457-31.807-162.449-10.733-15.992 21.075-17.761 73.498-17.761 73.498 57.718-.908 120.507 38.356 120.507 38.356s66.463 33.707 94.222 82.874c0 0 45.543-27.71 56.211-51.79 10.856-24.398-6.14-84.447-90.73-132.205z" fill="#fff"/><path d="M500.568 302.681c-17.449-9.851-35.838-18.112-55.244-23.981l-3.629-1.201-3.816-.883-7.337-1.598c-4.892-1.066-9.971-1.814-15.05-2.561-10.051-1.011-20.585-1.871-30.686-.791-10.398.914-20.767 3.115-30.596 7.74a57.322 57.322 0 00-13.533 8.894c-4.295 3.935-6.519 9.038-9.04 13.975-4.449 10.206-6.748 20.779-8.563 31.201-1.816 10.421-3.04 21.177-3.485 31.948l-.079.803.779.016c10.613.057 21.443 1.084 32.005 3.231 10.562 2.147 20.749 4.931 30.856 8.517 10.107 3.586 19.839 7.808 29.274 11.864 9.544 4.54 18.9 9.398 27.881 14.892 9.356 4.858 18.337 10.352 27.129 16.164 8.793 5.812 17.211 12.26 25.145 18.859 8.229 6.765 15.788 14 22.971 21.871 7.183 7.871 13.211 16.361 18.864 25.488l.403.652.672-.469c9.317-5.762 18.043-11.859 26.553-18.925 8.322-6.748 16.724-14.3 23.351-22.853 3.408-4.435 6.519-9.038 7.857-14.642 1.445-5.119 1.707-10.906 1.11-15.907-.817-10.636-4.053-20.518-8.443-29.779-4.39-9.262-10.122-17.586-16.043-25.592-3.201-3.927-6.403-7.854-9.793-11.464l-5.084-5.414-2.69-2.79-2.878-2.473c-14.713-13.818-31.412-24.941-48.861-34.792zm0 0c17.262 10.169 33.772 21.61 48.673 35.11l2.878 2.473 2.69 2.79 5.084 5.414c3.39 3.61 6.592 7.537 9.794 11.464 5.92 8.006 11.652 16.33 15.855 25.909 4.094 9.095 7.329 18.977 8.147 29.613.409 5.318.039 10.621-1.219 15.422-1.445 5.119-4.557 9.722-7.777 13.839-6.627 8.553-14.841 15.787-23.163 22.535-8.322 6.748-17.532 12.996-26.366 18.607l1.075.183c-5.465-9.444-11.976-17.784-18.972-25.973-7.182-7.871-14.741-15.105-22.971-21.871-8.229-6.766-16.647-13.214-25.439-19.026a452.978 452.978 0 00-27.238-16.649 231.194 231.194 0 00-28.364-14.741c-9.544-4.54-19.463-8.444-29.57-12.031-10.107-3.586-20.481-6.051-30.856-8.517-10.562-2.147-21.392-3.174-32.489-3.079l.7.819c.257-10.454 1.481-21.21 3.297-31.631 1.815-10.422 4.114-20.995 8.375-30.883 2.037-4.786 4.558-9.722 8.369-13.506a41.586 41.586 0 0113.049-8.743c9.641-4.308 19.903-6.993 30.3-7.907 10.398-.913 20.528-.705 30.874.472 5.079.748 10.158 1.496 15.05 2.562l7.337 1.598 3.817.883 3.628 1.201c19.594 5.551 37.983 13.812 55.432 23.663zM224.637 461.284l42.83-71.508c14.1-23.532 27.918-47.225 41.737-70.917l-2.881-.837c-1.164 9.055-2.327 18.11-3.772 27.005-.722 4.447-1.622 9.198-2.625 13.485-1.003 4.286-2.183 8.877-3.644 13.307l.177-.304c-7.795 13.365-15.767 27.034-23.282 40.56-7.514 13.525-15.486 27.194-23.001 40.72-3.042 3.931-7.206 7.221-11.785 8.654-2.29.717-4.86 1.273-7.076 1.221-2.216-.051-4.358-.871-6.678-1.386zm0 0c2.143.819 4.566 1.799 6.782 1.85 2.496.212 4.889-.04 7.179-.757 2.289-.716 4.756-1.736 6.838-3.381 2.083-1.645 4.165-3.29 5.686-5.256 8.076-13.205 16.048-26.873 24.124-40.078 8.076-13.205 16.048-26.873 23.844-40.238 1.461-4.431 2.641-9.021 3.821-13.612 1.18-4.59 1.902-9.037 2.802-13.788 1.621-9.199 2.785-18.254 3.668-27.469l.84-7.215-3.721 6.379c-13.996 23.996-27.888 48.456-41.426 72.31l-40.437 71.255z" fill="#fff"/><path d="M224.743 461.235c34.249-58.126 83.507-143.288 83.507-143.288s-3.63 36.377-9.923 54.23l-47.062 80.751c-.457.143-11.163 14.663-26.522 8.307z" fill="#fff"/><path d="M256.737 456.315l49.662-83.171c5.757-.52 11.648.706 17.247 1.768s11.304 2.601 16.718 3.976c10.933 3.228 21.787 7.247 31.978 11.727 20.859 8.813 41.082 19.356 60.934 30.526 19.666 11.483 39.147 23.28 57.222 36.792 9.183 6.838 17.889 13.825 26.224 21.438 3.929 3.882 8.149 7.927 11.892 12.122 3.743 4.195 7.301 8.703 9.903 13.509l-.027-1.269-49.661 83.171c-1.193 2.67-1.617 5.356-2.04 8.042-.423 2.685-.263 5.7.269 8.088.346 2.701 1.647 5.104 2.948 7.507 1.301 2.403 3.451 4.03 5.309 5.493l-.239-2.223-8.538 14.411c-2.784 4.699-6.046 9.548-9.121 14.083-6.338 9.383-13.074 18.125-20.579 26.851-7.319 8.413-15.223 16.498-23.923 23.298-8.7 6.801-18.489 12.154-28.969 12.105-21.306 1.797-42.163-2.419-61.906-8.516-19.85-6.574-38.693-15.505-56.501-25.525-18.1-10.184-35.644-21.308-51.596-34.461-15.767-13.466-29.942-28.961-39.29-48.006-5.576-8.985-5.634-20.714-3.941-31.457 1.694-10.743 4.926-21.456 8.928-32.153 7.818-21.082 18.158-41.163 30.249-60.258 2.229.836 4.644 1.359 7.244 1.569 2.6.21 5.094-.057 7.668-1.116 4.112-1.028 8.754-4.264 11.936-8.321zm0 0c-3.182 4.057-7.824 7.293-12.785 9.097-2.388.745-5.067 1.326-7.482.803-2.6-.21-5.015-.734-7.244-1.57-12.091 19.095-22.431 39.176-30.541 60.094-3.816 10.384-7.234 21.41-8.928 32.153-.847 5.372-1.109 11.072-.709 16.31.346 2.701.692 5.402 1.516 7.954.823 2.552 2.124 4.955 3.134 7.193 9.348 19.045 23.338 34.853 38.919 48.633 15.766 13.466 33.124 24.903 51.516 35.252 18.101 10.184 36.758 19.428 56.899 26.167 19.85 6.573 40.999 10.954 63.074 9.173 2.786-.104 5.28-.371 8.437-1.101 1.433-.447 2.866-.894 4.113-1.028 1.432-.447 2.573-1.059 4.006-1.506 5.332-2.43 9.974-5.666 14.616-8.902 9.177-6.95 17.081-15.035 24.586-23.761a293.963 293.963 0 0020.764-27.165c3.261-4.848 6.337-9.383 9.307-14.396l8.723-14.724.742-1.253-.982-.971c-1.858-1.463-3.424-2.762-4.619-4.687-1.194-1.925-2.204-4.164-2.629-6.074-.532-2.388-.479-4.447-.056-7.133.238-2.373.953-4.894 1.775-6.938l-.186.313 49.077-83.499.372-.626-.399-.642c-2.815-5.761-6.558-9.956-10.301-14.151-3.743-4.194-7.963-8.24-12.184-12.285-8.335-7.614-17.333-14.765-26.702-21.29-18.552-13.363-38.033-25.16-57.885-36.329-20.037-10.857-40.26-21.4-61.305-29.9-10.668-4.331-21.23-8.186-32.455-11.577-5.706-1.54-11.119-2.915-16.718-3.977-5.599-1.061-11.384-1.81-17.433-1.454l-50.033 83.797z" fill="#fff"/><path d="M257.601 456.756l-.027.045-.032.043-.803-.574.803.575-.001.001-.003.004-.008.011-.029.037c-.025.032-.06.078-.107.136a16.87 16.87 0 01-.404.491c-.353.414-.871.994-1.543 1.668-1.342 1.344-3.306 3.07-5.795 4.591-4.827 2.949-11.674 5.143-19.706 2.202l-.006.011-.019.031-.018.031-.018.031-.019.031-.018.031-.018.031-.019.031-.018.031-.019.031-.018.031-.018.031-.019.031-.018.031-.018.031-.019.03-.018.031-.018.031-.018.031-.019.031-.018.031-.018.031-.019.031-.018.031-.018.031-.019.03-.018.031-.018.031-.018.031-.019.031-.018.031-.018.03-.018.031-.019.031-.018.031-.018.031-.018.03-.019.031-.018.031-.018.031-.018.03-.018.031-.019.031-.018.031-.018.03-.018.031-.018.031-.019.03-.018.031-.018.031-.018.03-.018.031-.019.031-.018.03-.018.031-.018.031-.018.03-.018.031-.018.031-.019.03-.018.031-.018.03-.018.031-.018.031-.018.03-.018.031-.018.03-.018.031-.019.03-.018.031-.018.031-.018.03-.018.031-.018.03-.018.031-.018.03-.018.031-.018.03-.018.031-.018.03-.018.031-.018.03-.019.03-.018.031-.018.03-.018.031-.018.03-.018.031-.018.03-.018.03-.018.031-.018.03-.018.031-.018.03-.018.03-.018.031-.018.03-.018.03-.018.031-.018.03-.017.03-.018.031-.018.03-.018.03-.018.03-.018.031-.018.03-.018.03-.018.031-.018.03-.018.03-.018.03-.018.031-.018.03-.018.03-.017.03-.018.03-.018.031-.018.03-.018.03-.018.03-.018.03-.018.031-.017.03-.018.03-.018.03-.018.03-.018.03-.018.03-.018.03-.017.031-.018.03-.018.03-.018.03-.018.03-.018.03-.017.03-.018.03-.018.03-.018.03-.018.03-.017.03-.018.03-.018.03-.018.03-.017.03-.018.03-.018.03-.018.03-.017.03-.018.03-.018.03-.018.03-.017.03-.018.03-.018.03-.018.03-.017.03-.018.03-.018.029-.017.03-.018.03-.018.03-.018.03-.017.03-.018.03-.018.03-.017.029-.018.03-.018.03-.017.03-.018.03-.018.03-.017.029-.018.03-.018.03-.017.03-.018.029-.017.03-.018.03-.018.03-.017.029-.018.03-.018.03-.017.03-.018.029-.017.03-.018.03-.018.029-.017.03-.018.03-.017.029-.018.03-.017.03-.018.029-.018.03-.017.03-.018.029-.017.03-.018.03-.017.029-.018.03-.017.029-.018.03-.017.029-.018.03-.017.03-.018.029-.017.03-.018.029-.017.03-.018.029-.017.03-.018.029-.017.03-.018.029-.017.03-.018.029-.017.03-.018.029-.017.03-.018.029-.017.03-.017.029-.018.029-.017.03-.018.029-.017.03-.018.029-.017.029-.017.03-.018.029-.017.03-.018.029-.017.029-.017.03-.018.029-.017.029-.018.03-.017.029-.017.029-.018.03-.017.029-.017.029-.018.03-.017.029-.017.029-.018.029-.017.03-.017.029-.018.029-.017.029-.017.03-.018.029-.017.029-.017.029-.018.029-.017.03-.017.029-.018.029-.017.029-.017.029-.017.03-.018.029-.017.029-.017.029-.017.029-.018.029-.017.029-.017.029-.017.03-.018.029-.017.029-.017.029-.017.029-.018.029-.017.029-.017.029-.017.029-.017.029-.018.029-.017.029-.017.029-.017.029-.017.029-.017.029-.018.029-.017.029-.017.029-.017.029-.017.029-.017.029-.018.029-.017.029-.017.029-.017.029-.017.029-.017.029-.017.028-.017.029-.018.029-.017.029-.017.029-.017.029-.017.029-.017.029-.017.028-.017.029-.017.029-.017.029-.018.029-.017.029-.017.028-.017.029-.017.029-.017.029-.017.028-.017.029-.017.029-.017.029-.017.028-.017.029-.017.029-.017.029-.017.028-.017.029-.017.029-.017.028-.017.029-.017.029-.017.028-.017.029-.017.029-.017.028-.017.029-.017.029-.017.028-.017.029-.017.029-.017.028-.017.029-.017.028-.017.029-.016.029-.017.028-.017.029-.017.028-.017.029-.017.028-.017.029-.017.028-.017.029-.017.028-.017.029-.016.028-.017.029-.017.028-.017.029-.017.028-.017.029-.017.028-.016.029-.017.028-.017.029-.017.028-.017.028-.017.029-.016.028-.017.029-.017.028-.017.028-.017.029-.017.028-.016.029-.017.028-.017.028-.017.029-.017.028-.016.028-.017.029-.017.028-.017.028-.016.029-.017.028-.017.028-.017.028-.016.029-.017.028-.017.028-.017.028-.016.029-.017.028-.017.028-.017.028-.016.029-.017.028-.017.028-.016.028-.017.028-.017.028-.016.029-.017.028-.017.028-.016.028-.017.028-.017.028-.016.029-.017.028-.017.028-.016.028-.017.028-.017.028-.016.028-.017.028-.017.028-.016.028-.017.028-.017.028-.016.028-.017.029-.016.028-.017.028-.017.028-.016.028-.017.028-.016.028-.017.028-.016.028-.017.027-.017.028-.016.028-.017.028-.016.028-.017.028-.016.028-.017.028-.016.028-.017.028-.016.028-.017.028-.016.028-.017.027-.017.028-.016.028-.017.028-.016.028-.017.028-.016.028-.016.027-.017.028-.016.028-.017.028-.016.028-.017.027-.016.028-.017.028-.016.028-.017.027-.016.028-.017.028-.016.028-.016.027-.017.028-.016.028-.017.028-.016.027-.016.028-.017.028-.016.027-.017.028-.016.028-.016.027-.017.028-.016.028-.017.027-.016.028-.016.028-.017.027-.016.028-.016.027-.017.028-.016.028-.016.027-.017.028-.016.027-.016.028-.017.027-.016.028-.015.025-.001.002h0l-.005.009-.023.038-.089.154-.349.605c-.305.534-.751 1.322-1.315 2.337a324.774 324.774 0 00-4.599 8.599c-3.749 7.259-8.6 17.271-13.018 28.289-4.42 11.023-8.394 23.024-10.403 34.267-2.013 11.268-2.027 21.641 1.329 29.496l.001.002c17.574 41.381 62.038 70.181 92.113 87.103 30.075 16.922 77.899 40.049 123.459 34.191h.002c8.658-1.095 17.87-6.294 26.876-13.627 8.987-7.317 17.664-16.671 25.25-25.913 7.582-9.238 14.053-18.338 18.629-25.132a327.831 327.831 0 005.342-8.18 216.006 216.006 0 001.782-2.876l.092-.152.023-.038.005-.009.001-.002.015-.025.016-.028.017-.027.016-.028.016-.028.017-.027.016-.028.016-.027.017-.028.016-.027.017-.028.016-.028.016-.027.017-.028.016-.028.016-.027.017-.028.016-.028.017-.027.016-.028.016-.028.017-.027.016-.028.017-.028.016-.027.016-.028.017-.028.016-.028.017-.027.016-.028.017-.028.016-.028.016-.027.017-.028.016-.028.017-.028.016-.027.017-.028.016-.028.017-.028.016-.028.017-.028.016-.027.017-.028.016-.028.017-.028.016-.028.017-.028.016-.028.017-.027.016-.028.017-.028.016-.028.017-.028.016-.028.017-.028.017-.028.016-.028.017-.028.016-.028.017-.028.016-.028.017-.028.017-.028.016-.028.017-.028.016-.028.017-.028.017-.028.016-.028.017-.028.016-.028.017-.028.017-.028.016-.028.017-.028.016-.028.017-.028.017-.028.016-.028.017-.029.017-.028.016-.028.017-.028.017-.028.016-.028.017-.028.017-.029.016-.028.017-.028.017-.028.017-.028.016-.028.017-.029.017-.028.016-.028.017-.028.017-.029.017-.028.016-.028.017-.028.017-.029.017-.028.016-.028.017-.028.017-.029.017-.028.016-.028.017-.029.017-.028.017-.028.016-.029.017-.028.017-.028.017-.029.017-.028.016-.028.017-.029.017-.028.017-.029.017-.028.017-.028.016-.029.017-.028.017-.029.017-.028.017-.028.017-.029.016-.028.017-.029.017-.028.017-.029.017-.028.017-.029.017-.028.017-.029.016-.028.017-.029.017-.028.017-.029.017-.028.017-.029.017-.029.017-.028.017-.029.017-.028.017-.029.017-.028.017-.029.016-.029.017-.028.017-.029.017-.028.017-.029.017-.029.017-.028.017-.029.017-.029.017-.028.017-.029.017-.029.017-.028.017-.029.017-.029.017-.029.017-.028.017-.029.017-.029.017-.029.017-.028.017-.029.017-.029.017-.029.017-.028.018-.029.017-.029.017-.029.017-.029.017-.028.017-.029.017-.029.017-.029.017-.029.017-.029.017-.028.017-.029.018-.029.017-.029.017-.029.017-.029.017-.029.017-.029.017-.028.017-.029.017-.029.018-.029.017-.029.017-.029.017-.029.017-.029.017-.029.018-.029.017-.029.017-.029.017-.029.017-.029.017-.029.018-.029.017-.029.017-.029.017-.029.017-.029.018-.029.017-.029.017-.029.017-.03.018-.029.017-.029.017-.029.017-.029.018-.029.017-.029.017-.029.017-.029.018-.03.017-.029.017-.029.017-.029.018-.029.017-.029.017-.03.018-.029.017-.029.017-.029.018-.029.017-.03.017-.029.017-.029.018-.029.017-.03.017-.029.018-.029.017-.029.017-.03.018-.029.017-.029.018-.03.017-.029.017-.029.018-.03.017-.029.017-.029.018-.03.017-.029.018-.029.017-.03.017-.029.018-.029.017-.03.018-.029.017-.03.017-.029.018-.029.017-.03.018-.029.017-.03.018-.029.017-.03.018-.029.017-.029.017-.03.018-.029.017-.03.018-.029.017-.03.018-.029.017-.03.018-.029.017-.03.018-.03.017-.029.018-.03.017-.029.018-.03.017-.029.018-.03.017-.03.018-.029.017-.03.018-.029.018-.03.017-.03.018-.029.017-.03.018-.029.017-.03.018-.03.018-.029.017-.03.018-.03.017-.03.018-.029.017-.03.018-.03.018-.029.017-.03.018-.03.017-.03.018-.029.018-.03.017-.03.018-.03.018-.029.017-.03.018-.03.018-.03.017-.03.018-.029.018-.03.017-.03.018-.03.018-.03.017-.029.018-.03.018-.03.017-.03.018-.03.018-.03.017-.03.018-.03.018-.03.018-.029.017-.03.018-.03.018-.03.018-.03.017-.03.018-.03.018-.03.018-.03.017-.03.018-.03.018-.03.018-.03.017-.03.018-.03.018-.03.018-.03.018-.03.017-.03.018-.03.018-.03.018-.03.018-.03.017-.03.018-.03.018-.031.018-.03.018-.03.018-.03.017-.03.018-.03.018-.03.018-.03.018-.031.018-.03.017-.03.018-.03.018-.03.018-.03.018-.031.018-.03.018-.03.018-.03.018-.03.018-.031.017-.03.018-.03.018-.03.018-.031.018-.03.018-.03.018-.03.018-.031.018-.03.018-.03.018-.031.018-.03.018-.03.018-.031.018-.03.018-.03.018-.031.018-.03.018-.03.018-.031.018-.03.018-.03.018-.031.018-.03.018-.031.018-.03.018-.03.018-.031.018-.03.018-.031.018-.03.018-.031.018-.03.018-.031.018-.03.018-.031.018-.03.018-.031.018-.03.018-.031.018-.03.018-.031.019-.03.018-.031.018-.03.018-.031.018-.03.018-.031.018-.031.018-.03.018-.031.019-.03.018-.031.018-.031.018-.03.018-.031.018-.03.018-.031.019-.031.018-.03.018-.031.018-.031.018-.03.018-.031.019-.031.018-.031.018-.03.018-.031.018-.031.019-.03.018-.031.018-.031.018-.031.018-.03.019-.031.018-.031.018-.031.018-.03.019-.031.018-.031.018-.031.018-.031.019-.031.018-.03.018-.031.018-.031.019-.031.018-.031.018-.031.019-.03.018-.031.018-.031.018-.031.019-.031.018-.031.018-.031.019-.031.018-.031.018-.031.019-.031.018-.031.018-.03.019-.031.018-.031.018-.031.019-.031.018-.031.018-.031.019-.031.018-.031.019-.031.018-.031.007-.012c-6.63-5.307-8.104-12.184-7.897-17.732.107-2.861.659-5.382 1.183-7.186.262-.904.518-1.632.711-2.137.096-.253.176-.45.233-.586l.068-.158.019-.043.005-.013.002-.004.001-.001.912.39-.912-.391.022-.048.027-.046 49.109-82.895a20.05 20.05 0 00-.476-.906c-.506-.914-1.341-2.294-2.639-4.124-2.595-3.659-7.043-9.116-14.423-16.229-14.76-14.227-41.235-35.07-88.038-61.404-46.803-26.335-78.563-38.258-98.586-43.602-10.01-2.672-17.083-3.698-21.633-4.058-2.275-.181-3.918-.195-4.983-.166-.45.013-.797.033-1.044.052l-49.109 82.895z" fill="#E14443" stroke="#fff" stroke-width="2"/><path d="M493.224 593.112l47.061-80.751c12.461-14.325 42.447-35.627 42.447-35.627s-49.818 84.84-83.506 143.287c-13.342-10.465-6.002-26.909-6.002-26.909z" fill="#fff"/><path d="M493.171 593.157l23.832-40.23 24.112-40.07-.177.304c3.144-3.467 6.392-6.469 9.816-9.775 3.248-3.003 6.953-6.149 10.762-8.83 7.056-5.685 14.57-11.512 22.011-16.572l-2.172-2.051c-6.906 11.844-14.27 23.831-20.895 35.835-6.906 11.844-13.989 23.992-20.615 35.996-13.708 24.152-26.959 48.16-40.948 72.152l.458-.144c-1.788-1.426-3.575-2.853-4.831-5.191-1.434-2.034-2.409-4.211-2.927-6.532-.859-4.945-.063-10.159 1.574-14.892zm0 0c-1.918 4.572-2.713 9.787-1.855 14.732.518 2.32 1.317 4.801 2.75 6.835s3.043 3.765 4.831 5.192l.28.16.178-.304c13.989-23.991 28.362-47.358 42.632-71.189 7.187-11.683 14.27-23.831 21.176-35.675l20.895-35.835L587.6 471l-5.714 4.022c-7.337 5.524-14.674 11.047-21.907 17.035-3.528 2.842-6.953 6.149-10.658 9.294-3.424 3.307-6.849 6.613-9.712 10.24l-22.99 40.711-23.448 40.855z" fill="#fff"/></svg>