<svg width="560" height="659" fill="none" xmlns="http://www.w3.org/2000/svg"><rect x="479.512" y="-8.494" width="809.12" height="40" rx="6" transform="rotate(120 479.512 -8.494)" fill="#E14443"/><path d="M170.273 274.054c3.803-5.124 19.043-4.21 24.274-4.005.544.033 1.178.398 1.478.853 27.724-45.093 52.189-85.029 52.189-85.029 13.525-21.474 21.639-43.82 33.635-61.671 11.997-17.852 32.139-31.282 54.139-33.785 12.104-1.459 20.399-3.146 25.396-4.484a30.204 30.204 0 0113.249-.516c32.339 5.437 57.266 17.858 57.266 17.858s23.342 15.166 44.098 40.664c2.859 3.34 4.896 7.614 6.178 11.733 1.339 4.996 4.026 13.023 8.815 24.235 8.409 20.06 7.061 44.341-2.401 63.656-9.462 19.315-24.967 37.393-36.591 59.965 0 0-22.354 41.155-47.543 87.711.544.033.966.277 1.478.854 3.126 4.339 11.205 17.168 8.668 23.025-3.146 6.912-5.501 6.115-9.627 2.044-1.957-1.975-5.505-6.558-8.632-10.897-28.026 51.958-57.151 105.816-61.816 114.385-9.12 17.26-32.395 68.301-73.951 81.757-41.679 13.666-89.648-13.466-104.219-21.878-14.571-8.413-61.93-36.601-71.056-79.317-9.003-42.928 23.441-88.394 33.828-104.922 5.088-8.325 37.168-60.476 68.152-110.727-5.321-.538-11.064-1.32-13.753-2.027-5.8-1.659-7.668-3.301-3.254-9.482z" fill="#DCE1EA"/><path d="M170.272 274.055c1.309-1.779 3.762-2.615 5.761-3.151 2.21-.413 4.419-.827 6.718-.907 2.299-.081 4.598-.161 6.776-.031l3.265.196c1.089.066 2.299-.08 3.111.952l43.931-71.214 11.119-17.795c3.747-6.002 6.949-12.037 10.063-18.405 6.316-12.403 11.998-25.171 19.581-36.842 3.747-6.002 8.217-11.306 13.409-15.91 5.193-4.604 10.897-8.632 16.991-11.871 6.093-3.24 12.788-5.569 19.539-7.02 3.42-.56 6.841-1.12 10.472-1.557l10.261-1.679c6.84-1.118 13.445-3.78 20.399-3.145 6.832.847 13.842 2.36 20.397 4.174 13.443 3.538 26.821 8.165 39.135 14.148 11.793 7.371 22.278 16.522 32.063 26.395 4.727 4.982 9.542 10.296 13.692 15.789 2.013 2.852 3.361 5.882 4.254 9.213a107.44 107.44 0 003.221 10.026l3.677 9.725c1.226 3.242 2.785 6.394 3.677 9.725 2.118 6.573 3.448 13.535 3.69 20.432.241 6.897-.395 13.851-1.786 20.65-1.391 6.799-3.96 13.199-6.952 19.356-6.316 12.403-14.743 23.586-22.327 35.257-3.958 5.881-7.583 11.672-10.907 17.918l-10.063 18.404-39.919 73.531-.731 1.267 1.511.309.633.366.902 1.365 1.802 2.73c1.202 1.82 2.282 3.851 3.15 5.76 1.08 2.032 1.949 3.941 2.362 6.151.536 1.998.949 4.208.096 5.686-.488.845-.886 2.023-1.585 2.746-.488.844-1.187 1.567-1.731 1.534-.544-.032-1.3-.187-2.234-1.008-.722-.699-1.656-1.519-2.379-2.218a133.806 133.806 0 01-8.21-10.653l-1.112-1.487-.975 1.69-41.813 77.786-20.801 38.954c-6.682 13.036-13.575 25.951-21.946 38.011-4.291 5.97-8.793 11.817-13.807 17.088-5.014 5.271-10.662 10.175-16.488 14.414l-4.55 3.004c-1.487 1.113-3.274 1.77-4.851 2.55-3.063 1.891-6.727 2.873-10.09 4.31-6.906 2.207-14.202 3.627-21.31 3.746l-2.632.17-2.721-.163c-1.966-.009-3.599-.107-5.565-.116-3.688-.44-7.287-.546-10.731-1.409-7.254-1.09-14.231-3.148-21.087-5.417-13.922-4.659-27.202-10.918-39.873-18.234-12.67-7.315-24.853-15.475-35.849-25.202-5.393-4.803-10.753-10.15-15.446-15.676-2.347-2.763-4.572-5.737-6.797-8.71-1.112-1.487-1.892-3.064-2.882-4.762l-1.502-2.275-1.17-2.364c-3.661-6.338-5.747-13.455-7.621-20.45-.438-3.631-1.208-7.173-1.313-10.894-.113-1.755-.226-3.509-.217-5.475l.327-5.443c.546-7.287 1.97-14.63 4.028-21.608 2.057-6.977 4.659-13.922 7.683-20.623 6.048-13.402 13.786-25.829 21.857-38.344l23.123-37.613 46.248-75.226c-4.444-.595-9.009-.978-13.542-1.906-.966-.276-2.266-.463-3.322-1.073-.844-.488-2.233-1.008-2.379-2.218-.479-1.122.13-2.178.529-3.355.455-.301 1.276-1.235 1.763-2.079zm0 0c-.609 1.055-1.308 1.778-1.918 2.834-.609 1.056-1.008 2.234-.529 3.355s1.535 1.731 2.38 2.218c1.177.399 2.144.675 3.322 1.074 4.532.927 8.976 1.522 13.541 1.905l-46.458 75.104-23.335 37.491c-7.949 12.305-15.809 24.943-22.068 38.223-3.024 6.701-5.837 13.524-7.895 20.501-2.179 7.189-3.481 14.321-4.36 21.697l-.328 5.443c-.22 1.844.105 3.72.218 5.475.105 3.721.875 7.263 1.313 10.894 1.752 7.206 3.838 14.323 7.5 20.661l1.38 2.486 1.502 2.275c.99 1.698 1.891 3.063 2.882 4.762 2.225 2.974 4.117 6.037 6.675 8.921 4.571 5.737 10.053 10.873 15.324 15.887 10.996 9.727 23.268 18.221 35.939 25.536 12.67 7.315 26.039 13.908 39.962 18.567a150.983 150.983 0 0021.298 5.539c3.566.651 7.376.88 10.942 1.531 1.844.22 3.599.106 5.565.115l2.721.164 2.843-.048c7.442-.209 14.737-1.628 21.854-3.714 3.364-1.437 7.028-2.418 10.213-4.521 1.576-.78 3.485-1.648 4.85-2.55l4.55-3.004c6.16-4.328 11.685-9.022 16.821-14.503 5.014-5.271 9.849-11.208 14.141-17.177 8.582-11.939 15.597-25.065 22.279-38.101l21.012-38.832 42.023-77.664-2.087.202c2.736 3.551 5.351 7.313 8.42 10.775.934.82 1.535 1.73 2.591 2.34.934.821 2.201 1.552 3.956 1.439 1.665-.446 2.608-1.591 3.429-2.525l1.828-3.168c1.13-2.445.538-5.321.003-7.319-.625-2.332-1.705-4.363-2.663-6.605-1.079-2.032-2.159-4.063-3.361-5.883l-1.802-2.73-.902-1.365c-.389-.788-1.234-1.276-1.99-1.431l.78 1.577 39.707-73.652 9.852-18.527c3.203-6.035 6.949-12.037 10.908-17.917 7.583-11.672 15.799-22.977 22.237-35.591 3.325-6.246 5.805-12.98 7.196-19.779 1.513-7.01 2.149-13.963 1.696-20.982-.241-6.897-1.449-14.071-3.779-20.765-1.103-3.453-2.662-6.606-3.888-9.847l-3.677-9.726c-1.225-3.241-2.118-6.572-3.221-10.025-1.104-3.453-2.541-6.817-4.555-9.669-4.36-5.614-8.965-10.807-13.902-15.91-8.909-9.93-19.393-19.081-31.154-26.997-12.646-5.893-26.024-10.52-39.468-14.058-6.888-1.724-13.687-3.116-20.73-4.085-3.477-.318-7.108.12-10.439 1.012a107.393 107.393 0 01-10.293 2.223l-10.261 1.678c-3.42.56-6.93.786-10.472 1.557-6.751 1.452-13.445 3.78-19.872 7.11-6.094 3.239-12.131 7.356-17.112 12.082-5.193 4.604-9.785 10.119-13.531 16.121-7.583 11.671-13.177 24.773-19.493 37.175-3.113 6.368-6.316 12.403-10.063 18.405l-10.907 17.917-43.842 71.547c-.812-1.032-2.144-.675-3.111-.951l-3.266-.196c-2.177-.131-4.476-.05-6.775.03-2.299.08-4.508.494-6.718.908-1.666.446-3.786 1.193-5.428 3.061z" fill="#DCE1EA"/><path d="M125.471 564.831c-14.993-8.656-63.198-37.332-72.59-81.048-9.394-43.716 23.87-90.115 34.502-107.066 10.631-16.95 132.069-214.607 132.069-214.607 13.98-21.775 21.916-44.787 34.156-63.061 12.118-18.063 32.716-31.793 55.381-34.475 12.438-1.548 20.855-3.446 25.729-4.573 4.33-1.16 9.05-1.533 13.583-.605 33.004 5.258 58.565 18.045 58.565 18.045s23.643 15.62 45.032 41.485c2.948 3.673 4.896 7.613 6.268 12.065 1.339 4.997 4.025 13.024 8.904 24.569 8.799 20.848 7.418 45.673-2.166 65.199-9.917 19.616-25.667 38.116-37.534 61.11 0 0-110.457 203.997-119.821 221.679-9.364 17.682-32.915 69.69-75.471 83.414-42.678 13.934-91.614-13.474-106.607-22.131z" fill="#212F60"/><path d="M377.519 371.628c1.122-.479 2.088-.203 2.689.707 3.004 4.55 11.506 17.624 8.969 23.48-3.268 7.124-5.623 6.327-9.838 1.922-2.891-2.795-8.421-10.774-12.059-15.69-1.713-2.397-.639-5.719 1.936-6.766l8.303-3.653z" fill="#212F60"/><path d="M377.52 371.628c.788-.39 1.754-.113 2.388.252.511.577.901 1.366 1.413 1.942.901 1.365 1.68 2.942 2.582 4.307a48.584 48.584 0 014.042 9.091c1.015 3.12 1.696 6.329.111 9.074-.731 1.268-1.585 2.746-2.617 3.558-.455.3-.788.389-1.421.024l-1.69-.976c-2.501-2.007-4.426-4.526-6.561-7.167-2.136-2.641-4.061-5.16-6.196-7.8l-1.413-1.942c-.512-.577-.901-1.365-1.08-2.032-.235-1.543.407-3.143 1.561-4.167 2.608-1.591 5.85-2.817 8.881-4.164zm0 0l-4.485 1.916c-1.576.779-3.12 1.014-4.485 1.915-1.365.902-2.34 2.591-2.349 4.557.056.877.324 1.877.836 2.453l1.291 2.154c1.802 2.73 3.605 5.46 5.619 8.312 1.924 2.519 3.938 5.371 6.74 7.833a5.93 5.93 0 002.534 1.463c.966.277 2.388.253 3.298-.348 1.82-1.202 2.584-3.013 3.227-4.613.365-.634.642-1.6.707-2.689.065-1.088.009-1.966-.048-2.843-.324-1.877-.892-3.331-1.46-4.785-1.348-3.031-3.029-5.972-4.831-8.702l-2.704-4.095c-.512-.577-.901-1.366-1.413-1.942-.934-.821-1.689-.976-2.477-.586z" fill="#DCE1EA"/><path d="M166.767 249.949c-.146-1.21-.868-1.909-1.957-1.974-5.443-.327-21.015-1.152-24.819 3.972-4.535 6.392-2.667 8.034 3.255 9.482 3.866 1.106 13.541 1.905 19.617 2.597 2.933.286 5.273-2.305 4.892-5.059l-.988-9.018z" fill="#212F60"/><path d="M166.767 249.95c-.056-.877-.779-1.576-1.413-1.942-.755-.155-1.632-.098-2.388-.253l-4.898-.294c-3.266-.196-6.653-.18-9.952.168-1.543.235-3.42.559-4.874 1.128-.788.389-1.576.779-2.486 1.38-.911.601-1.398 1.445-1.975 1.957-.854 1.478-1.918 2.834-2.382 5.101-.065 1.088.503 2.543 1.348 3.03.722.699 1.689.976 2.534 1.463 3.322 1.074 6.677 1.603 10.153 1.921 3.266.196 6.743.514 10.009.71l2.51.041c.877-.056 1.754-.113 2.543-.503 1.576-.779 2.762-2.347 2.771-4.312-.113-1.755-.348-3.299-.583-4.842l-.917-4.753zm0 0c.349 3.298.697 6.597.834 9.773-.098 1.633-1.374 2.867-2.828 3.435-.666.179-1.544.235-2.299.081l-2.388-.253c-3.355-.529-6.499-.936-9.854-1.465-3.355-.529-6.498-.936-9.488-2.099-.755-.155-1.389-.52-1.689-.975-.422-.244-.723-.699-.69-1.244.065-1.088.919-2.566 1.772-4.045 1.252-2.656 4.705-3.759 7.914-4.441a48.576 48.576 0 019.895-1.044c1.755-.114 3.387-.016 5.02.082.756.155 1.633.098 2.388.253.634.366 1.235 1.276 1.413 1.942z" fill="#DCE1EA"/><path d="M390.79 277.927l-7.071 12.248c-1.193-3.786-3.231-8.06-5.813-12.366l7.681-13.304c3.564 7.97 5.203 13.422 5.203 13.422z" fill="#fff"/><path d="M390.79 277.926a5033.889 5033.889 0 01-7.705 11.882l1.422-.024c-1.25-4.663-3.409-8.726-5.691-12.577l.057.877c2.56-4.434 5.121-8.869 7.47-13.426l-1.3-.187 5.747 13.455zm0 0c-1.127-4.875-2.71-9.449-4.414-13.812l-.358-1.332-.731 1.267c-2.772 4.312-5.332 8.747-7.892 13.182l-.244.422.3.455c2.282 3.852 4.441 7.914 5.935 12.155l.568 1.454.731-1.267c1.895-4.256 4-8.39 6.105-12.524z" fill="#DCE1EA"/><path d="M373.175 240.163c2.493 3.973 4.652 8.036 6.723 11.765l-8.901 15.416c-4.238-5.826-7.698-10.076-7.698-10.076l9.876-17.105z" fill="#fff"/><path d="M373.175 240.163c2.249 4.395 3.986 8.214 5.934 12.155l.033-.545c-3.137 4.947-6.185 10.226-9.111 15.294l1.421-.024c-2.647-3.217-5.172-6.646-7.82-9.864l.057.877c1.585-2.745 2.959-5.612 4.666-8.569l4.82-9.324zm0 0l-5.299 8.203c-1.918 2.835-3.625 5.791-5.332 8.747l-.244.423.3.455c2.526 3.429 4.962 6.525 7.487 9.954l.812 1.032.732-1.267c2.926-5.069 5.974-10.348 8.689-15.538l.244-.423-.09-.333c-2.281-3.851-5.107-7.735-7.299-11.253z" fill="#DCE1EA"/><path d="M385.71 264.292l-7.681 13.304a240.416 240.416 0 00-6.91-10.465l8.9-15.416c2.127 4.607 4.165 8.881 5.691 12.577z" fill="#fff"/><path d="M385.71 264.293a3362.897 3362.897 0 01-8.315 12.938l1.211-.146c-2.193-3.518-4.385-7.036-6.788-10.676l.056.877c2.926-5.068 5.974-10.347 8.689-15.537l-1.088-.066a121.964 121.964 0 006.235 12.61zm0 0c-1.616-4.03-3.32-8.393-5.147-12.544l-.479-1.122-.609 1.056c-3.137 4.947-6.185 10.226-9.112 15.294l-.243.422.3.455c2.314 3.307 4.718 6.948 7.032 10.255l.812 1.032.609-1.056c2.138-4.679 4.488-9.235 6.837-13.792z" fill="#DCE1EA"/><path d="M241.067 191.483l-7.071 12.248c3.875-.859 8.595-1.232 13.615-1.149l7.682-13.304c-8.474 1.021-14.226 2.205-14.226 2.205z" fill="#fff"/><path d="M241.068 191.483c-2.528 3.89-5.055 7.781-7.705 11.882l-.731 1.267 1.543-.235c4.42-.827 9.018-.988 13.494-.938l.544.033.244-.422c2.56-4.435 5.121-8.87 7.47-13.426l.731-1.267-1.332.357c-4.72.372-9.473 1.288-14.258 2.749zm0 0l14.526-1.75-.812-1.032c-2.772 4.313-5.332 8.747-7.893 13.182l.788-.39c-4.476-.05-9.285-.011-13.737 1.361l.812 1.032c2.195-3.801 4.3-7.936 6.316-12.403z" fill="#DCE1EA"/><path d="M282.581 187.857c-4.687-.172-9.285-.011-13.55.061l-8.9 15.415c7.164.758 12.574 1.629 12.574 1.629l9.876-17.105z" fill="#fff"/><path d="M282.581 187.857c-4.143-.139-8.83-.311-13.518-.483l-.333.089-.244.422c-3.137 4.947-6.185 10.226-9.111 15.294l-.732 1.267 1.3.188c4.232.472 8.132 1.034 12.364 1.506l.788-.389.244-.423c1.707-2.956 3.202-6.035 4.909-8.991l4.333-8.48zm0 0l-5.543 8.626c-1.796 2.623-3.503 5.58-5.088 8.325l.788-.39c-4.11-.683-8.343-1.156-12.453-1.84l.69 1.243c2.926-5.068 5.974-10.347 8.689-15.537l-.455.3c4.265-.072 8.774-.566 13.372-.727z" fill="#DCE1EA"/><path d="M255.626 189.188l-7.681 13.304c4.143.14 8.497.401 12.518.752l8.9-15.416c-5.264.34-9.773.834-13.737 1.36z" fill="#fff"/><path d="M255.626 189.188c-2.649 4.101-5.543 8.625-8.314 12.938l-.61 1.056 1.3.187c4.021.351 8.253.823 12.396.963l.333-.089.244-.423c2.926-5.068 5.974-10.347 8.689-15.537l.61-1.056-1.211.146c-4.508.494-9.139 1.199-13.437 1.815zm0 0c4.809-.039 9.196-.322 13.583-.605l-.601-.91c-3.137 4.946-6.185 10.226-9.111 15.294l.788-.39c-4.143-.139-8.375-.612-12.64-.54l.812 1.032c2.349-4.557 4.698-9.113 7.169-13.881zm58.633-119.599s-23.329-4.46-35.334 15.358l19.644-3.3c3.087-.47 5.573-1.85 7.67-4.018l8.02-8.04zm145.711 84.126s15.527 17.974 4.367 38.279l-6.965-18.662c-1.136-2.908-1.184-5.752-.354-8.651l2.952-10.966zm-34.972-52.569c-2.48 6.733-5.293 13.556-8.106 20.379-2.813 6.823-5.715 13.313-8.739 20.014a1263.344 1263.344 0 01-18.657 39.629c-6.259 13.28-12.819 26.105-19.29 39.263l-19.712 39.02 10.973-19.006 10.551-19.25a1275.316 1275.316 0 0019.923-38.897c6.259-13.28 12.397-26.349 18.234-39.873 5.293-13.557 10.708-27.324 14.823-41.279zm-47.936-27.678c-10.028 10.541-19.032 22.236-27.915 33.72-8.672 11.606-17.254 23.545-25.414 35.728a1338.574 1338.574 0 00-23.724 36.702l-11.396 18.762-10.973 19.006 23.936-36.581c8.16-12.183 15.987-24.276 24.358-36.337a1314.35 1314.35 0 0124.992-35.972c4.291-5.969 8.46-11.727 12.962-17.575 4.08-6.091 8.583-11.939 13.174-17.453zm-93.489 14.16a1741.46 1741.46 0 00-28.917 41.308c-9.469 13.961-18.604 27.833-27.862 41.917-9.046 14.205-18.303 28.288-26.927 42.737-8.835 14.328-17.458 28.777-25.238 43.714 4.357-7.058 8.835-14.328 13.403-21.264 4.357-7.058 9.046-14.205 13.403-21.263 9.046-14.205 18.303-28.289 27.438-42.161l27.439-42.161 13.825-21.019 13.436-21.808zm175.906 101.563l-11.502 22.361-11.29 22.483-22.793 44.843c-7.568 15.058-15.225 29.784-22.793 44.843-3.723 7.423-7.779 14.937-11.714 22.238-3.723 7.424-7.99 14.815-11.713 22.239 8.835-14.327 17.037-29.02 25.238-43.713 7.99-14.815 15.769-29.752 23.548-44.689 7.568-15.058 15.136-30.117 22.371-45.086 6.69-15.003 13.714-30.094 20.648-45.519zM321.003 70.102c-10.759 11.808-20.674 24.104-30.499 36.733-9.826 12.629-19.107 25.291-28.51 38.163-8.981 13.117-18.173 26.112-26.52 39.595-4.446 6.724-8.347 13.482-12.582 20.329a390.574 390.574 0 00-11.948 20.695c8.769-13.239 17.328-26.599 26.097-39.838 8.77-13.239 17.751-26.355 27.154-39.228 8.981-13.117 18.473-25.657 27.876-38.53 9.403-12.873 19.229-25.502 28.932-37.92zm134.939 77.909c-5.691 14.735-11.926 29.436-18.162 44.138-6.447 14.58-12.56 29.07-19.429 43.406-6.658 14.458-13.527 28.794-20.396 43.13-6.869 14.336-14.161 28.428-21.452 42.52l11.948-20.695c3.813-7.09 7.503-13.97 11.315-21.061 7.292-14.092 14.161-28.428 21.03-42.764 6.658-14.457 12.893-29.159 18.795-43.772 5.814-14.945 11.505-29.68 16.351-44.902z" fill="#DCE1EA"/><path d="M92.765 418.119A350.12 350.12 0 0082.57 438.7c-3.146 6.913-6.203 14.158-8.926 21.314a371.523 371.523 0 00-7.538 21.834c-2.301 7.4-4.27 14.71-5.604 22.387 1.317-3.745 2.301-7.4 3.708-10.812 1.195-3.533 2.512-7.278 3.707-10.811 2.724-7.156 5.237-14.434 7.96-21.59l8.382-21.346 8.505-21.557zm175.908 101.559l-14.295 17.933-14.296 17.932c-4.835 5.937-9.67 11.874-14.717 17.688-2.462 2.802-5.047 5.815-7.509 8.617-2.584 3.013-5.047 5.815-7.509 8.617 5.769-5.116 11.116-10.476 16.585-16.047a371.073 371.073 0 0015.14-17.445 345.62 345.62 0 0013.995-18.387 332.632 332.632 0 0012.606-18.908z" fill="#DCE1EA" stroke="#DCE1EA" stroke-width="2"/><path d="M308.963 247.016c-60.396-34.87-103.112-25.745-113.669-11.849-10.557 13.896-10.293 49.527-10.293 49.527 40.252.995 85.191 29.475 85.191 29.475s47.345 24.8 68.122 59.04c0 0 30.989-17.586 37.745-33.677 6.878-16.302-6.7-57.647-67.096-92.516z" fill="#fff"/><path d="M308.964 247.015c-12.459-7.193-25.528-13.331-39.239-17.868l-2.567-.919-2.688-.707-5.167-1.294c-3.444-.862-7.01-1.513-10.576-2.164-7.043-.969-14.419-1.849-21.438-1.396-7.23.331-14.403 1.539-21.13 4.413a35.851 35.851 0 00-9.19 5.675c-2.885 2.558-4.291 5.969-5.909 9.259-2.813 6.823-4.115 13.955-5.084 20.998-.969 7.043-1.515 14.329-1.518 21.649l-.033.544.545.033c7.408.335 14.996 1.337 22.428 3.094 7.433 1.757 14.621 3.936 21.777 6.66 7.156 2.724 14.068 5.87 20.769 8.894 6.791 3.357 13.459 6.926 19.884 10.916 6.668 3.569 13.092 7.559 19.395 11.761 6.302 4.202 12.361 8.827 18.087 13.54 5.937 4.836 11.418 9.971 16.656 15.53 5.238 5.558 9.688 11.506 13.894 17.876l.301.455.455-.3c6.337-3.662 12.252-7.568 17.989-12.139 5.615-4.361 11.262-9.266 15.643-14.902 2.251-2.924 4.291-5.97 5.064-9.747.862-3.444.88-7.376.32-10.796-.875-7.263-3.415-14.079-6.744-20.506-3.329-6.427-7.567-12.253-11.928-17.868-2.347-2.763-4.693-5.525-7.162-8.077l-3.703-3.827-1.958-1.975-2.079-1.763c-10.663-9.817-22.634-17.855-35.094-25.049zm0 0c12.338 7.405 24.187 15.654 34.972 25.26l2.08 1.763 1.957 1.975 3.703 3.827c2.469 2.552 4.815 5.315 7.162 8.077 4.361 5.615 8.6 11.441 11.806 18.079 3.118 6.305 5.658 13.122 6.533 20.384.438 3.632.331 7.231-.409 10.463-.863 3.445-2.903 6.49-5.032 9.203-4.38 5.636-9.906 10.33-15.521 14.69-5.614 4.361-11.863 8.356-17.867 11.928l.755.155c-4.084-6.581-8.867-12.44-13.983-18.21-5.238-5.558-10.72-10.694-16.656-15.529-5.937-4.836-11.996-9.46-18.298-13.662a354.348 354.348 0 00-19.485-12.094 180.014 180.014 0 00-20.216-10.827c-6.79-3.357-13.825-6.292-20.981-9.016-7.156-2.723-14.466-4.692-21.777-6.66a114.482 114.482 0 00-22.761-3.005l.511.577c-.119-7.108.428-14.395 1.396-21.438.969-7.043 2.271-14.175 4.963-20.786 1.284-3.201 2.902-6.49 5.453-8.959 2.552-2.469 5.615-4.361 8.857-5.586a63.783 63.783 0 0120.92-4.535c7.23-.33 14.305.094 21.559 1.185 3.566.651 7.132 1.302 10.576 2.165l5.167 1.293 2.688.707 2.567.919c13.833 4.326 26.902 10.464 39.361 17.657zM117.846 355.169l29.529-49.683c9.721-16.35 19.231-32.821 28.741-49.293l-2.144-.675c-.603 6.409-1.207 12.819-2.021 19.106-.407 3.144-.936 6.499-1.555 9.521-.618 3.021-1.358 6.254-2.31 9.365l.122-.211c-5.364 9.292-10.851 18.795-16.004 28.208-5.154 9.414-10.64 18.917-15.794 28.33-2.129 2.713-5.103 4.938-8.434 5.83-1.665.447-3.542.771-5.175.673-1.633-.098-3.233-.74-4.955-1.171zm0 0c1.6.642 3.412 1.406 5.045 1.504 1.844.22 3.598.107 5.264-.339 1.665-.447 3.453-1.104 4.94-2.217 1.487-1.112 2.974-2.224 4.038-3.581 5.576-9.17 11.062-18.672 16.638-27.842 5.576-9.17 11.062-18.673 16.427-27.964.951-3.112 1.692-6.344 2.432-9.577.74-3.233 1.147-6.377 1.676-9.732.937-6.499 1.54-12.908 1.932-19.439l.416-5.11-2.56 4.435c-9.632 16.683-19.175 33.699-28.473 50.292l-27.775 49.57z" fill="#DCE1EA"/><path d="M117.846 355.169c23.62-40.424 57.547-99.675 57.547-99.675s-1.657 25.792-5.796 38.326l-32.431 56.172c-.333.089-7.818 10.128-19.32 5.177z" fill="#fff"/><path d="M136.834 350.081l32.642-56.051c4.054-.194 8.254.823 12.242 1.718 3.989.895 8.066 2.123 11.933 3.229 7.822 2.545 15.611 5.635 22.946 9.024 15.002 6.691 29.606 14.559 43.966 22.85 14.238 8.502 28.354 17.215 41.527 27.073 6.692 4.99 13.051 10.069 19.167 15.571 2.891 2.795 5.993 5.713 8.762 8.719 2.769 3.007 5.417 6.225 7.398 9.621l-.057-.877-32.642 56.05c-.764 1.812-.984 3.656-1.204 5.5-.22 1.844-.018 3.931.428 5.597.325 1.876 1.315 3.575 2.306 5.273.99 1.698 2.558 2.884 3.914 3.949l-.235-1.543-5.608 9.714c-1.829 3.167-3.991 6.424-6.031 9.47-4.202 6.302-8.704 12.15-13.751 17.965-4.925 5.603-10.272 10.963-16.22 15.413-5.947 4.45-12.707 7.868-20.116 7.532-15.004.629-29.87-2.885-44.003-7.666-14.223-5.114-27.803-11.829-40.685-19.266-13.093-7.559-25.82-15.752-37.482-25.301-11.541-9.76-22.017-20.876-29.186-34.307-4.206-6.37-4.593-14.478-3.713-21.854.88-7.376 2.848-14.686 5.36-21.964 4.904-14.345 11.618-27.925 19.599-40.774 1.601.642 3.323 1.073 5.167 1.293 1.844.22 3.598.107 5.386-.551 2.876-.592 6.061-2.695 8.19-5.407zm0 0c-2.129 2.712-5.314 4.815-8.767 5.919-1.666.446-3.542.77-5.264.339-1.844-.22-3.566-.651-5.167-1.293-7.981 12.849-14.695 26.429-19.81 40.652-2.39 7.067-4.48 14.589-5.36 21.965-.44 3.688-.458 7.62-.02 11.251.324 1.877.649 3.753 1.306 5.541.657 1.787 1.648 3.485 2.427 5.061 7.169 13.431 17.523 24.759 28.942 34.73 11.54 9.76 24.145 18.164 37.449 25.845 13.093 7.559 26.552 14.485 40.986 19.721 14.222 5.114 29.299 8.75 44.847 8.154 1.966.009 3.721-.104 5.931-.518.999-.268 1.998-.535 2.876-.592.999-.268 1.787-.657 2.786-.925 3.697-1.526 6.882-3.629 10.067-5.732 6.281-4.539 11.628-9.899 16.675-15.714a180.369 180.369 0 0013.873-18.176c2.162-3.257 4.202-6.303 6.153-9.681l5.73-9.926.488-.844-.723-.699c-1.357-1.065-2.502-2.008-3.403-3.373-.901-1.365-1.681-2.941-2.038-4.273-.446-1.666-.47-3.087-.25-4.931.098-1.633.529-3.355 1.05-4.744l-.122.211 32.22-56.294.244-.423-.301-.455c-2.159-4.062-4.929-7.069-7.698-10.075-2.769-3.007-5.871-5.924-8.974-8.842-6.115-5.501-12.685-10.703-19.499-15.482-13.507-9.768-27.623-18.481-41.983-26.772-14.481-8.08-29.085-15.948-44.209-22.427-7.668-3.301-15.246-6.268-23.28-8.936-4.077-1.228-7.944-2.334-11.932-3.228-3.988-.895-8.099-1.579-12.364-1.507l-32.886 56.473z" fill="#DCE1EA"/><path d="M137.7 350.58l-.03.051-.035.047-.801-.598.801.599-.001.001-.002.003-.007.008-.021.028a2.534 2.534 0 01-.057.073l-.018.023c-.065.081-.158.196-.28.338a20.064 20.064 0 01-5.099 4.196c-3.356 1.917-8.136 3.239-13.871 1.071l-.001.001-.012.021-.012.021-.012.021-.012.021-.012.021-.012.021-.012.02-.012.021-.012.021-.012.021-.012.021-.012.02-.012.021-.012.021-.012.021-.012.021-.012.02-.012.021-.012.021-.012.021-.012.02-.012.021-.012.021-.012.021-.012.02-.012.021-.012.021-.012.021-.012.02-.012.021-.012.021-.012.021-.012.02-.012.021-.012.021-.012.02-.012.021-.012.021-.012.02-.012.021-.012.021-.012.02-.011.021-.012.021-.012.02-.012.021-.012.021-.012.02-.012.021-.012.02-.012.021-.012.021-.012.02-.011.021-.012.021-.012.02-.012.021-.012.02-.012.021-.012.02-.012.021-.011.021-.012.02-.012.021-.012.02-.012.021-.012.02-.012.021-.012.02-.011.021-.012.02-.012.021-.012.02-.012.021-.012.02-.011.021-.012.02-.012.021-.012.02-.012.021-.012.02-.011.021-.012.02-.012.021-.012.02-.012.021-.011.02-.012.021-.012.02-.012.02-.012.021-.011.02-.012.021-.012.02-.012.02-.011.021-.012.02-.012.021-.012.02-.012.02-.011.021-.012.02-.012.021-.012.02-.011.02-.012.021-.012.02-.012.02-.011.021-.012.02-.012.02-.012.021-.011.02-.012.02-.012.021-.011.02-.012.02-.012.02-.012.021-.011.02-.012.02-.012.021-.011.02-.012.02-.012.02-.012.021-.011.02-.012.02-.012.02-.011.021-.012.02-.012.02-.011.02-.012.02-.012.021-.011.02-.012.02-.012.02-.011.02-.012.021-.012.02-.011.02-.012.02-.012.02-.011.021-.012.02-.011.02-.012.02-.012.02-.011.02-.012.02-.012.021-.011.02-.012.02-.011.02-.012.02-.012.02-.011.02-.012.02-.011.02-.012.02-.012.021-.011.02-.012.02-.011.02-.012.02-.012.02-.011.02-.012.02-.011.02-.012.02-.011.02-.012.02-.012.02-.011.02-.012.02-.011.02-.012.02-.011.02-.012.02-.011.02-.012.02-.011.02-.012.02-.012.02-.011.02-.012.02-.011.02-.012.02-.011.02-.012.02-.011.02-.012.02-.011.02-.012.019-.011.02-.012.02-.011.02-.012.02-.011.02-.012.02-.011.02-.012.02-.011.02-.012.019-.011.02-.011.02-.012.02-.011.02-.012.02-.011.02-.012.019-.011.02-.012.02-.011.02-.012.02-.011.02-.011.019-.012.02-.011.02-.012.02-.011.02-.012.019-.011.02-.011.02-.012.02-.011.019-.012.02-.011.02-.011.02-.012.019-.011.02-.012.02-.011.02-.011.019-.012.02-.011.02-.012.019-.011.02-.011.02-.012.02-.011.019-.011.02-.012.02-.011.019-.012.02-.011.02-.011.019-.012.02-.011.02-.011.019-.012.02-.011.02-.011.019-.012.02-.011.02-.011.019-.012.02-.011.019-.011.02-.012.02-.011.019-.011.02-.012.019-.011.02-.011.019-.011.02-.012.02-.011.019-.011.02-.012.019-.011.02-.011.019-.011.02-.012.019-.011.02-.011.02-.012.019-.011.02-.011.019-.011.02-.012.019-.011.02-.011.019-.011.02-.012.019-.011.02-.011.019-.011.019-.012.02-.011.019-.011.02-.011.019-.011.02-.012.019-.011.02-.011.019-.011.019-.012.02-.011.019-.011.02-.011.019-.011.019-.012.02-.011.019-.011.02-.011.019-.011.019-.012.02-.011.019-.011.019-.011.02-.011.019-.011.02-.012.019-.011.019-.011.02-.011.019-.011.019-.011.02-.012.019-.011.019-.011.019-.011.02-.011.019-.011.019-.011.02-.011.019-.012.019-.011.019-.011.02-.011.019-.011.019-.011.019-.011.02-.011.019-.012.019-.011.019-.011.02-.011.019-.011.019-.011.019-.011.019-.011.02-.011.019-.011.019-.011.019-.011.019-.012.02-.011.019-.011.019-.011.019-.011.019-.011.019-.011.02-.011.019-.011.019-.011.019-.011.019-.011.019-.011.019-.011.019-.011.02-.011.019-.011.019-.011.019-.011.019-.011.019-.011.019-.011.019-.011.019-.011.019-.011.019-.011.019-.011.019-.011.02-.011.019-.011.019-.011.019-.011.019-.011.019-.011.019-.011.019-.011.019-.011.019-.011.019-.011.019-.011.019-.011.019-.011.019-.011.019-.011.019-.011.019-.011.019-.011.018-.011.019-.011.019-.011.019-.011.019-.011.019-.01.019-.011.019-.011.019-.011.019-.011.019-.011.019-.011.019-.011.018-.011.019-.011.019-.011.019-.01.019-.011.019-.011.019-.011.019-.011.018-.011.019-.011.019-.011.019-.011.019-.01.019-.011.018-.011.019-.011.019-.011.019-.011.019-.011.018-.01.019-.011.019-.011.019-.011.019-.011.018-.011.019-.01.019-.011.019-.011.018-.011.019-.011.019-.011.019-.01.018-.011.019-.011.019-.011.019-.011.018-.01.019-.011.019-.011.018-.011.019-.011.019-.01.019-.011.018-.011.019-.011.019-.011.018-.01.019-.011.019-.011.018-.011.019-.01.019-.011.018-.011.019-.011.018-.01.019-.011.019-.011.018-.011.019-.01.018-.011.019-.011.019-.011.018-.01.019-.011.018-.011.019-.011.019-.01.018-.009.015-.001.002-.001.002-.002.004-.014.025-.058.102-.228.407c-.199.358-.49.888-.858 1.572a198.232 198.232 0 00-2.991 5.799c-2.431 4.901-5.558 11.668-8.349 19.14-2.793 7.476-5.238 15.627-6.32 23.303-1.086 7.695-.783 14.788 1.784 20.236l.001.002c13.605 29.024 45.816 50.177 67.577 62.741 21.761 12.564 56.186 29.883 88.124 27.153h.002c6.002-.501 12.295-3.785 18.417-8.573 6.106-4.775 11.943-10.968 17.021-17.125 5.075-6.153 9.372-12.245 12.401-16.801a200.166 200.166 0 003.527-5.489 130.401 130.401 0 001.171-1.93l.059-.101.015-.025.002-.004.002-.002.009-.016.011-.019.011-.019.01-.018.011-.019.011-.018.01-.019.011-.019.011-.018.011-.019.01-.018.011-.019.011-.019.011-.018.01-.019.011-.018.011-.019.011-.019.01-.018.011-.019.011-.019.011-.018.011-.019.01-.019.011-.018.011-.019.011-.019.011-.018.01-.019.011-.019.011-.019.011-.018.011-.019.01-.019.011-.018.011-.019.011-.019.011-.019.01-.018.011-.019.011-.019.011-.019.011-.018.011-.019.01-.019.011-.019.011-.019.011-.018.011-.019.011-.019.011-.019.01-.019.011-.018.011-.019.011-.019.011-.019.011-.019.011-.019.01-.018.011-.019.011-.019.011-.019.011-.019.011-.019.011-.019.011-.018.011-.019.011-.019.01-.019.011-.019.011-.019.011-.019.011-.019.011-.019.011-.019.011-.018.011-.019.011-.019.011-.019.011-.019.011-.019.01-.019.011-.019.011-.019.011-.019.011-.019.011-.019.011-.019.011-.019.011-.019.011-.019.011-.019.011-.019.011-.019.011-.019.011-.019.011-.019.011-.019.011-.019.011-.019.011-.019.011-.019.011-.019.011-.019.011-.019.011-.019.011-.02.011-.019.011-.019.011-.019.011-.019.011-.019.011-.019.011-.019.011-.019.011-.019.011-.02.011-.019.011-.019.011-.019.011-.019.011-.019.012-.019.011-.02.011-.019.011-.019.011-.019.011-.019.011-.019.011-.02.011-.019.011-.019.011-.019.011-.019.011-.02.012-.019.011-.019.011-.019.011-.019.011-.02.011-.019.011-.019.011-.019.011-.02.012-.019.011-.019.011-.019.011-.02.011-.019.011-.019.011-.02.011-.019.012-.019.011-.02.011-.019.011-.019.011-.019.011-.02.011-.019.012-.019.011-.02.011-.019.011-.019.011-.02.011-.019.012-.02.011-.019.011-.019.011-.02.011-.019.012-.019.011-.02.011-.019.011-.02.011-.019.012-.019.011-.02.011-.019.011-.02.011-.019.012-.019.011-.02.011-.019.011-.02.012-.019.011-.02.011-.019.011-.02.011-.019.012-.02.011-.019.011-.02.011-.019.012-.02.011-.019.011-.02.012-.019.011-.02.011-.019.011-.02.012-.019.011-.02.011-.019.011-.02.012-.019.011-.02.011-.019.012-.02.011-.02.011-.019.012-.02.011-.019.011-.02.011-.019.012-.02.011-.02.011-.019.012-.02.011-.02.011-.019.012-.02.011-.019.011-.02.012-.02.011-.019.011-.02.012-.02.011-.019.011-.02.012-.02.011-.019.012-.02.011-.02.011-.019.012-.02.011-.02.011-.019.012-.02.011-.02.012-.02.011-.019.011-.02.012-.02.011-.019.011-.02.012-.02.011-.02.012-.019.011-.02.012-.02.011-.02.011-.02.012-.019.011-.02.012-.02.011-.02.011-.02.012-.019.011-.02.012-.02.011-.02.012-.02.011-.019.012-.02.011-.02.011-.02.012-.02.011-.02.012-.019.011-.02.012-.02.011-.02.012-.02.011-.02.012-.02.011-.02.012-.02.011-.019.012-.02.011-.02.012-.02.011-.02.012-.02.011-.02.012-.02.011-.02.012-.02.011-.02.012-.02.011-.02.012-.02.011-.02.012-.02.011-.02.012-.02.011-.019.012-.02.012-.02.011-.02.012-.02.011-.021.012-.02.011-.02.012-.02.011-.02.012-.02.012-.02.011-.02.012-.02.011-.02.012-.02.012-.02.011-.02.012-.02.011-.02.012-.02.011-.02.012-.02.012-.021.011-.02.012-.02.012-.02.011-.02.012-.02.011-.02.012-.02.012-.021.011-.02.012-.02.012-.02.011-.02.012-.02.011-.02.012-.021.012-.02.011-.02.012-.02.012-.02.011-.021.012-.02.012-.02.011-.02.012-.02.012-.021.011-.02.012-.02.012-.02.011-.021.012-.02.012-.02.012-.02.011-.021.012-.02.012-.02.011-.02.012-.021.012-.02.011-.02.012-.021.012-.02.012-.02.011-.02.012-.021.012-.02.012-.02.011-.021.012-.02.012-.02.011-.021.012-.02.012-.02.012-.021.011-.02.012-.02.012-.021.012-.02.012-.021.011-.02.012-.02.012-.021.012-.02.011-.021.012-.02.012-.02.012-.021.012-.02.011-.021.012-.02.012-.021.012-.02.012-.02.011-.021.012-.02.012-.021.012-.02.012-.021.011-.02.012-.021.012-.02.012-.021.012-.02.012-.021.011-.02.012-.021.012-.02.012-.021.012-.02.012-.021.012-.02.011-.021.012-.02.012-.021.012-.021.012-.02.012-.021.012-.02.011-.021.012-.02.012-.021.012-.021.012-.02.012-.021.012-.02.012-.021.012-.021.012-.02.011-.021.012-.02.012-.021.012-.021.012-.02.012-.021.012-.021.012-.02.012-.021.012-.021.012-.02.012-.021.012-.021.011-.02.012-.021.012-.021.012-.02.012-.021.012-.021.012-.021.012-.02.012-.021.012-.021.012-.02.012-.021.012-.021.012-.021.012-.02.012-.021.012-.021.012-.021.012-.02.012-.021.012-.021.012-.021.012-.021.012-.02.012-.021.012-.021.012-.021.012-.021.012-.02.012-.021.012-.021.012-.021.012-.021.012-.021.012-.02.012-.021.012-.021.001-.002c-4.745-3.882-5.99-8.683-6.007-12.548a20.022 20.022 0 01.635-5.026c.162-.629.325-1.135.449-1.488.062-.176.114-.315.152-.411l.046-.114.013-.032.004-.01.002-.003v-.001c.001-.001.001-.001.919.394l-.918-.395.023-.054.029-.051 32.158-55.698c-.071-.129-.16-.285-.27-.47-.38-.637-1.006-1.608-1.972-2.903-1.933-2.591-5.228-6.481-10.646-11.601-10.835-10.242-30.148-25.399-63.993-44.94-33.845-19.54-56.627-28.687-70.916-32.95-7.142-2.131-12.158-3.04-15.368-3.419-1.606-.189-2.759-.245-3.501-.255a19.412 19.412 0 00-.542 0L137.7 350.58z" fill="#E14443" stroke="#fff" stroke-width="2"/><path d="M305.561 447.496l32.431-56.172c8.785-9.851 30.293-24.182 30.293-24.182s-34.35 59.006-57.547 99.674c-10.128-7.818-5.177-19.32-5.177-19.32z" fill="#fff"/><path d="M305.561 447.496l16.427-27.964 16.638-27.842-.122.211c2.219-2.379 4.526-4.426 6.956-6.683 2.308-2.047 4.949-4.182 7.679-5.985 5.038-3.849 10.409-7.787 15.747-11.181l-1.657-1.52c-4.755 8.236-9.843 16.561-14.387 24.919-4.754 8.236-9.631 16.682-14.175 25.04-9.421 16.805-18.508 33.52-28.14 50.203l.333-.089c-1.356-1.065-2.713-2.129-3.703-3.828-1.113-1.487-1.892-3.063-2.338-4.728-.771-3.542-.331-7.23.742-10.553zm0 0c-1.284 3.201-1.724 6.889-.953 10.431.446 1.665 1.103 3.453 2.216 4.94a20.245 20.245 0 003.703 3.827l.211.122.122-.211c9.632-16.683 19.564-32.911 29.407-49.472 4.966-8.113 9.843-16.56 14.598-24.796l14.387-24.919 2.438-4.223-4.095 2.704c-5.249 3.727-10.498 7.454-15.658 11.514-2.519 1.924-4.949 4.182-7.589 6.318-2.43 2.257-4.86 4.515-6.867 7.016l-15.793 28.33-16.127 28.419z" fill="#DCE1EA"/></svg>