<svg width="1920" height="812" fill="none" xmlns="http://www.w3.org/2000/svg"><mask id="a" style="mask-type:alpha" maskUnits="userSpaceOnUse" x="-55" y="0" width="2001" height="812"><rect x="-55" width="2001" height="812" rx="10" fill="#F2F2F2"/></mask><g mask="url(#a)"><path fill="#fff" d="M-833.646 1027.66L394.649-1099.81l1629.765 940.946L796.119 1968.605z"/><path fill="#fff" d="M-833.646 1027.66l1575.91-2729.556L3573.31-67.391 1997.4 2662.165z"/><path fill="#212F60" d="M-867 1008.4L361.295-1119.07l1647.423 951.14L780.423 1959.54z"/><rect x="1968.81" y="-19.293" width="1156.6" height="57.178" rx="6" transform="rotate(120 1968.81 -19.293)" fill="#E14443"/><path d="M1535.28 391.762c5.59-7.526 26.75-7.08 34.02-7.082.76.016 1.62.502 2.01 1.134 41.2-65.894 77.56-124.246 77.56-124.246 20.07-31.398 32.65-63.734 50.38-89.878 17.73-26.144 46.55-46.439 77.32-51.25 16.94-2.763 28.58-5.637 35.62-7.828 6.09-1.9 12.5-2.389 18.47-1.483 44.71 5.934 78.7 22.249 78.7 22.249s31.62 20.321 59.05 55.528c3.79 4.603 6.38 10.585 7.92 16.389 1.58 7.053 4.86 18.353 10.88 34.079 10.55 28.143 7.28 62.859-7.01 90.948-14.29 28.088-36.92 54.753-54.4 87.609 0 0-33.49 59.973-71.24 127.811.75.016 1.33.34 2 1.134 4.11 6.014 14.61 23.862 10.75 32.36-4.78 10.038-8.02 9.034-13.53 3.458-2.61-2.706-7.28-9.044-11.38-15.058-42.02 75.703-85.67 154.18-92.66 166.668-13.69 25.137-49.03 99.265-107.66 120.804-58.82 21.846-124.04-14.158-143.84-25.338-19.8-11.18-84.11-48.725-94.35-109.151-10.06-60.735 37.73-127.425 53.14-151.59 7.56-12.164 55.23-88.372 101.26-161.807-7.37-.468-15.32-1.259-19.03-2.117-7.98-2.04-10.48-4.277-3.98-13.343z" fill="#fff"/><path d="M1535.27 391.757c1.93-2.611 5.39-3.942 8.21-4.818 3.1-.715 6.2-1.429 9.4-1.674 3.21-.244 6.41-.489 9.43-.425l4.54.096c1.51.032 3.21-.245 4.28 1.182l65.26-104.07 16.5-26.013c5.57-8.774 10.37-17.564 15.07-26.824 9.51-18.049 18.16-36.585 29.39-53.663 5.56-8.773 12.09-16.591 19.58-23.452 7.5-6.862 15.67-12.929 24.34-17.893 8.67-4.965 18.13-8.665 27.61-11.117 4.79-.991 9.59-1.982 14.67-2.811 4.79-.991 9.58-1.982 14.38-2.972 9.59-1.982 18.93-6.153 28.58-5.637 9.46.823 19.13 2.587 28.15 4.805 18.52 4.289 36.87 10.136 53.67 17.977 16 9.852 30.06 22.315 43.12 35.849 6.29 6.84 12.69 14.15 18.15 21.753 2.64 3.955 4.34 8.202 5.39 12.904a145.65 145.65 0 003.91 14.121l4.56 13.666c1.52 4.556 3.51 8.965 4.56 13.667 2.57 9.257 4.02 19.115 3.95 28.94-.06 9.826-1.34 19.782-3.67 29.56-2.33 9.778-6.28 19.054-10.79 28.005-9.51 18.05-21.89 34.48-33.12 51.557-5.85 8.612-11.23 17.078-16.22 26.175l-15.07 26.824-59.81 107.148-1.09 1.849 2.09.356c.28.162.57.324.86.486l1.17 1.896c.79 1.265 1.57 2.529 2.35 3.794 1.57 2.528 2.96 5.365 4.06 8.04 1.38 2.837 2.48 5.512 2.93 8.641.63 2.821 1.08 5.95-.19 8.107-.73 1.233-1.35 2.935-2.37 4.006-.72 1.232-1.74 2.303-2.5 2.287-.75-.016-1.79-.194-3.05-1.312-.96-.956-2.22-2.075-3.18-3.031-3.79-4.603-7.39-9.515-10.82-14.734l-1.46-2.059-1.46 2.465-62.69 113.327-31.2 56.744c-10.06 18.974-20.4 37.786-32.75 55.464-6.31 8.758-12.92 17.354-20.2 25.155-7.29 7.802-15.43 15.118-23.79 21.493l-6.5 4.542c-2.14 1.671-4.66 2.71-6.9 3.91-4.38 2.872-9.54 4.479-14.3 6.718-9.74 3.539-19.98 5.974-29.88 6.546l-3.68.39-3.78-.08c-2.73.099-5 .051-7.74.149-5.11-.419-10.11-.369-14.85-1.405-10.04-1.147-19.64-3.689-29.05-6.539-19.11-5.863-37.24-14.044-54.46-23.766-17.22-9.722-33.71-20.676-48.46-33.934-7.23-6.547-14.38-13.873-20.6-21.492-3.1-3.809-6.03-7.926-8.96-12.043-1.46-2.059-2.45-4.264-3.73-6.63l-1.96-3.161-1.5-3.307c-4.73-8.835-7.22-18.871-9.43-28.744-.4-5.156-1.27-10.166-1.2-15.468-.05-2.497-.11-4.994.01-7.799l.77-7.783c1.18-10.426 3.59-20.982 6.86-31.052 3.26-10.07 7.29-20.124 11.88-29.854 9.19-19.461 20.68-37.625 32.64-55.935l34.36-54.962 68.72-109.924c-6.15-.597-12.49-.887-18.74-1.954-1.33-.34-3.13-.534-4.57-1.344-1.14-.649-3.05-1.313-3.18-3.031-.6-1.573.31-3.114.93-4.816.65-.454 1.85-1.833 2.57-3.066zm0 0c-.91 1.541-1.92 2.612-2.83 4.152-.91 1.541-1.53 3.244-.93 4.816.6 1.573 2.04 2.383 3.19 3.031 1.61.502 2.94.842 4.56 1.344 6.26 1.068 12.41 1.665 18.74 1.955l-69.01 109.762-34.64 54.8c-11.78 18.002-23.45 36.474-32.93 55.772-4.59 9.73-8.9 19.622-12.17 29.692-3.45 10.378-5.67 20.626-7.32 31.199l-.77 7.783c-.41 2.643-.07 5.302-.01 7.798-.07 5.302.8 10.312 1.2 15.468 2.02 10.182 4.51 20.217 9.25 29.052l1.77 3.469 1.96 3.161c1.29 2.367 2.46 4.264 3.74 6.63 2.93 4.118 5.39 8.381 8.78 12.352 6.04 7.926 13.37 14.944 20.42 21.8 14.75 13.258 31.34 24.682 48.56 34.404 17.22 9.722 35.45 18.374 54.57 24.236 9.7 3.012 19.47 5.246 29.33 6.701 4.92.728 10.22.84 15.14 1.568 2.56.209 5.01-.051 7.74-.149l3.78.079 3.96-.228c10.38-.717 20.61-3.153 30.64-6.53 4.77-2.239 9.92-3.846 14.48-7.026 2.24-1.2 4.95-2.547 6.9-3.91l6.51-4.542c8.82-6.521 16.78-13.529 24.25-21.639 7.29-7.801 14.36-16.543 20.68-25.301 12.63-17.516 23.16-36.636 33.21-55.61l31.49-56.583 62.98-113.164-2.92.406c3.61 4.912 7.03 10.131 11.1 14.897 1.26 1.118 2.04 2.382 3.48 3.193 1.25 1.118 2.97 2.09 5.42 1.83 2.34-.731 3.72-2.417 4.92-3.796l2.73-4.622c1.71-3.552 1.05-7.621.42-10.442-.73-3.291-2.12-6.128-3.32-9.273-1.39-2.837-2.78-5.674-4.34-8.203-.79-1.264-1.57-2.529-2.36-3.793l-1.17-1.897c-.5-1.102-1.65-1.75-2.69-1.928l.99 2.205 59.53-107.31 14.78-26.986c4.81-8.79 10.37-17.564 16.22-26.175 11.23-17.078 23.32-33.669 33.01-52.027 4.99-9.098 8.83-18.844 11.16-28.622 2.51-10.086 3.79-20.042 3.57-30.03.06-9.825-1.21-19.991-4.07-29.41-1.33-4.864-3.32-9.273-4.84-13.829l-4.56-13.667c-1.52-4.555-2.57-9.257-3.91-14.12-1.34-4.864-3.14-9.582-5.78-13.537-5.75-7.764-11.86-14.912-18.44-21.914-11.83-13.664-25.9-26.127-41.81-36.758-17.27-7.695-35.63-13.541-54.14-17.831-9.49-2.072-18.88-3.674-28.63-4.659-4.82-.258-9.9.571-14.59 2.032a154.24 154.24 0 01-14.46 3.751c-4.79.991-9.58 1.982-14.38 2.973-4.79.99-9.69 1.511-14.67 2.81a117.988 117.988 0 00-28.07 11.263c-8.67 4.965-17.31 11.178-24.52 18.201-7.49 6.862-14.2 14.987-19.77 23.761-11.23 17.078-19.77 36.084-29.28 54.133-4.7 9.26-9.5 18.05-15.07 26.824l-16.21 26.175-65.16 104.54c-1.07-1.427-2.95-.842-4.28-1.182l-4.53-.096c-3.03-.063-6.23.181-9.44.425-3.2.245-6.3.959-9.4 1.674-2.35.73-5.34 1.915-7.74 4.672z" fill="#fff"/><path d="M1454.49 806.83c-20.32-11.483-85.59-49.603-96.12-111.326-10.53-61.722 38.32-129.666 54.06-154.401 15.73-24.735 195.69-313.028 195.69-313.028 20.66-31.793 33.01-65.008 51.05-91.719 17.86-26.403 47.25-47.114 78.87-52.208 17.36-2.903 29.15-6.08 35.98-7.96 6.08-1.896 12.66-2.691 18.9-1.626 45.52 5.631 80.27 22.4 80.27 22.4s31.93 20.915 60.14 56.541c3.88 5.064 6.36 10.566 8 16.829 1.58 7.039 4.84 18.318 10.95 34.484 11.02 29.192 7.68 64.62-6.75 92.964-14.9 28.49-37.83 55.72-55.63 89.131 0 0-165.08 296.703-179.09 322.408-14.02 25.706-49.71 101.089-109.58 123.026-60.05 22.244-126.42-14.032-146.74-25.515z" fill="#212F60"/><path d="M1823.83 523.871c1.62-.761 2.97-.416 3.77.87 3.99 6.429 15.28 24.907 11.33 33.555-5.07 10.53-8.36 9.51-14.08 3.364-3.94-3.889-11.31-15.147-16.18-22.07-2.29-3.379-.57-8.263 3.15-9.933l12.01-5.786z" fill="#212F60"/><path d="M1823.88 523.868c1.14-.612 2.5-.267 3.37.227.7.807 1.2 1.928 1.89 2.736 1.2 1.928 2.21 4.17 3.41 6.098 2.21 4.17 3.94 8.49 5.19 12.958 1.26 4.468 2.03 9.085-.38 13.161-1.12 1.881-2.42 4.076-3.93 5.315-.66.462-1.14.611-2.02.118-.58-.33-1.46-.824-2.34-1.317-3.43-2.767-6.01-6.31-8.88-10.018-2.87-3.708-5.46-7.251-8.33-10.959l-1.89-2.735c-.69-.808-1.2-1.929-1.41-2.885-.24-2.226.77-4.586 2.47-6.138 3.79-2.461 8.47-4.429 12.85-6.561zm0 0l-6.48 3.041c-2.28 1.223-4.49 1.654-6.48 3.042-1.99 1.388-3.48 3.896-3.61 6.749.03 1.27.35 2.705 1.04 3.512l1.71 3.049c2.39 3.857 4.79 7.714 7.47 11.735 2.58 3.543 5.27 7.564 9.1 10.974.99.972 2.15 1.63 3.51 1.975 1.36.345 3.37.228 4.7-.697 2.66-1.85 3.85-4.524 4.86-6.883.56-.941 1.01-2.36 1.16-3.943.16-1.584.13-2.853.11-4.123-.35-2.705-1.07-4.782-1.79-6.859-1.73-4.319-3.94-8.49-6.34-12.346-1.19-1.929-2.39-3.857-3.59-5.785-.69-.808-1.2-1.929-1.89-2.736-1.28-1.137-2.34-1.317-3.48-.705z" fill="#fff"/><path d="M1521.95 349.304c-.14-1.749-1.12-2.721-2.66-2.752-7.71-.157-29.77-.446-35.47 7.213-6.82 9.542-4.27 11.816 4.05 13.572 5.42 1.379 19.11 1.975 27.69 2.625 4.15.243 7.63-3.653 7.25-7.628l-.86-13.03z" fill="#212F60"/><path d="M1521.96 349.271c-.02-1.27-1.01-2.243-1.88-2.737-1.07-.18-2.32-.047-3.38-.227l-6.94-.141c-4.62-.094-9.43.126-14.13.824-2.21.431-4.89 1.011-6.99 1.921-1.14.612-2.29 1.223-3.61 2.148-1.33.926-2.07 2.18-2.92 2.956-1.3 2.196-2.9 4.227-3.69 7.543-.16 1.584.56 3.662 1.73 4.32.98.973 2.34 1.318 3.51 1.976 4.65 1.364 9.38 1.937 14.3 2.195 4.62.094 9.54.353 14.17.447l3.56-.086c1.25-.134 2.49-.267 3.64-.879 2.28-1.223 4.06-3.567 4.19-6.421-.06-2.541-.3-4.767-.54-6.994l-1.02-6.845zm0 0c.3 4.767.6 9.534.6 14.137-.23 2.375-2.12 4.241-4.22 5.151-.95.298-2.2.431-3.27.251l-3.37-.227c-4.73-.573-9.17-.98-13.9-1.552-4.73-.573-9.17-.98-13.35-2.493-1.06-.181-1.94-.675-2.34-1.318a1.785 1.785 0 01-.9-1.764c.16-1.584 1.46-3.779 2.76-5.974 1.93-3.929 6.9-5.732 11.5-6.908a69.398 69.398 0 0114.11-2.094c2.5-.267 4.81-.22 7.12-.173 1.06.18 2.31.047 3.38.227.87.494 1.67 1.78 1.88 2.737zm319.74 40.506l-10.54 17.861c-1.44-5.328-4.02-11.303-7.36-17.294l11.46-19.4c4.48 11.157 6.44 18.833 6.44 18.833z" fill="#fff"/><path d="M1841.71 389.788c-3.92 6-7.67 11.691-11.41 17.382l1.98-.115c-1.47-6.578-4.23-12.247-7.18-17.608l.03 1.248c3.82-6.469 7.64-12.938 11.17-19.569l-1.8-.193c2.4 6.285 4.81 12.57 7.21 18.855zm0 0c-1.28-6.885-3.22-13.317-5.33-19.44l-.42-1.879-1.09 1.848c-4.11 6.307-7.93 12.776-11.75 19.246l-.36.616.39.631c2.95 5.361 5.71 11.03 7.54 16.992l.71 2.041 1.09-1.848c2.88-6.177 6.05-12.192 9.22-18.207zm-24.16-53.639c3.23 5.519 6 11.184 8.65 16.38l-13.26 22.473c-5.55-8.059-10.11-13.917-10.11-13.917l14.72-24.936z" fill="#fff"/><path d="M1817.58 336.112c2.87 6.14 5.06 11.487 7.54 16.996l.08-.778c-4.65 7.234-9.2 14.938-13.57 22.333l1.98-.115c-3.5-4.438-6.81-9.184-10.3-13.622l.02 1.248c2.37-4.006 4.45-8.174 7-12.488l7.25-13.574zm0 0l-7.85 12.002c-2.84 4.152-5.39 8.467-7.93 12.781l-.37.616.39.632c3.32 4.746 6.52 9.022 9.84 13.768l1.07 1.426 1.09-1.849c4.37-7.396 8.91-15.1 13-22.657l.36-.616-.11-.47c-2.94-5.363-6.65-10.741-9.49-15.633zm16.89 34.149l-11.45 19.397a300.85 300.85 0 00-8.99-14.519l13.27-22.476c2.69 6.443 5.27 12.417 7.17 17.598z" fill="#fff"/><path d="M1834.5 370.264a4918.79 4918.79 0 01-12.33 18.929l1.7-.278c-2.85-4.892-5.69-9.785-8.82-14.839l.02 1.248c4.37-7.396 8.92-15.099 13-22.657l-1.51-.031c2.4 6.287 4.88 11.796 7.94 17.628zm0 0c-2.02-5.655-4.13-11.78-6.43-17.597l-.6-1.572-.91 1.541c-4.65 7.234-9.2 14.938-13.57 22.334l-.36.616.39.632c3.02 4.584 6.15 9.638 9.18 14.223l1.07 1.425.91-1.541c3.25-6.794 6.78-13.428 10.32-20.061zM1628.4 266.79l-10.55 17.86c5.44-1.446 12.02-2.246 18.99-2.415l11.45-19.4c-11.83 1.939-19.89 3.955-19.89 3.955z" fill="#fff"/><path d="M1628.4 266.792c-3.74 5.692-7.48 11.383-11.41 17.382l-1.09 1.849 2.16-.424c6.2-1.432 12.6-1.924 18.82-2.108l.76.016.36-.616c3.82-6.469 7.64-12.938 11.17-19.569l1.09-1.849-1.87.585c-6.59.8-13.25 2.378-19.99 4.734zm0 0c6.77-1.108 13.54-2.216 20.3-3.324l-1.07-1.425c-4.1 6.307-7.92 12.776-11.74 19.245l1.12-.6c-6.22.184-12.91.514-19.18 2.724l1.06 1.425c3.28-5.545 6.45-11.56 9.51-18.045zm58.9-6.017c-6.5.022-12.9.514-18.83.86l-13.26 22.474c9.91.671 17.37 1.603 17.37 1.603l14.72-24.937z" fill="#fff"/><path d="M1687.35 260.745c-5.76.038-12.27.06-18.78.083l-.46.146-.37.616c-4.65 7.233-9.2 14.935-13.56 22.33l-1.1 1.848 1.8.193c5.86.432 11.25 1.011 17.11 1.443l1.12-.601.36-.616c2.55-4.314 4.81-8.789 7.36-13.102l6.52-12.34zm0 0l-8.22 12.617c-2.65 3.843-5.19 8.157-7.56 12.162l1.12-.601c-5.68-.74-11.54-1.172-17.21-1.912l.88 1.733c4.37-7.394 8.92-15.097 13-22.653l-.65.454c5.93-.346 12.23-1.308 18.64-1.8z" fill="#fff"/><path d="M1649.24 263.483l-11.45 19.397c5.75-.038 11.79.086 17.35.357l13.27-22.477c-7.34.785-13.63 1.746-19.17 2.723z" fill="#fff"/><path d="M1649.24 263.475c-3.92 5.999-8.21 12.614-12.32 18.921l-.9 1.541 1.79.192c5.57.271 11.43.703 17.18.665l.47-.146.37-.616c4.36-7.393 8.91-15.095 12.99-22.65l.9-1.54-1.69.277c-6.3.962-12.78 2.232-18.79 3.356zm0 0c6.69-.331 12.81-.984 18.93-1.638l-.79-1.264c-4.65 7.232-9.2 14.933-13.56 22.326l1.12-.6c-5.75.037-11.61-.395-17.55-.049l1.07 1.425c3.53-6.631 7.07-13.262 10.78-20.2zm83.34-172.163s-32.53-5.132-50.5 23.973l27.78-5.807c4.37-.843 7.94-2.96 11.01-6.187l11.71-11.979zm209.41 121.264s20.82 24.96 4 54.719l-8.74-26.413c-1.44-4.114-1.35-8.194-.02-12.402l4.76-15.904zm-49.78-75.144c-3.71 9.589-7.87 19.322-12.04 29.054-4.16 9.732-8.43 19.001-12.88 28.573a1955.644 1955.644 0 01-27.33 56.648c-9.18 18.984-18.73 37.344-28.18 56.167l-28.73 55.846c5.28-9.091 10.57-18.182 15.85-27.273l15.29-27.593a2006.071 2006.071 0 0029.02-55.686c9.17-18.984 18.16-37.664 26.77-56.969 7.88-19.322 15.93-38.947 22.23-58.767zm-69.85-40.373c-14.13 15.328-26.93 32.225-39.56 48.819-12.34 16.754-24.58 33.971-36.27 51.51a2081.68 2081.68 0 00-34.03 52.792l-16.41 26.949c-5.28 9.09-10.57 18.179-15.85 27.269l34.32-52.632c11.68-17.538 22.91-34.934 34.87-52.312 11.68-17.538 23.47-34.613 35.71-51.83 6.13-8.609 12.07-16.915 18.47-25.363 5.84-8.769 12.24-17.217 18.75-25.202zm-133.64 20.479c-14.06 19.754-27.66 39.365-41.16 59.44-13.49 20.075-26.54 40.007-39.76 60.242-12.94 20.396-26.16 40.631-38.54 61.346-12.66 20.556-25.05 41.272-36.31 62.629 6.24-10.126 12.66-20.555 19.18-30.522 6.24-10.126 12.94-20.395 19.18-30.521 12.95-20.396 26.16-40.631 39.21-60.563l39.2-60.563 19.74-30.201 19.26-31.287zm252.42 145.752l-16.68 31.967-16.4 32.127-33.07 64.094c-11 21.52-22.09 42.576-33.08 64.095-5.41 10.608-11.27 21.359-16.96 31.807-5.41 10.608-11.55 21.198-16.95 31.806 12.66-20.557 24.49-41.595 36.32-62.633 11.54-21.199 22.81-42.557 34.08-63.916 10.99-21.519 21.99-43.038 32.52-64.415 9.81-21.395 20.06-42.932 30.22-64.932zM1742.23 92.044c-15.21 17.157-29.29 34.956-43.27 53.219-13.98 18.262-27.23 36.542-40.65 55.125-12.86 18.904-26 37.648-38.02 57.033-6.38 9.683-12.02 19.385-18.12 29.229a610.343 610.343 0 00-17.29 29.71c12.59-19.064 24.89-38.289 37.47-57.353 12.58-19.065 25.44-37.969 38.86-56.552 12.86-18.904 26.39-37.023 39.81-55.606 13.42-18.584 27.4-36.846 41.21-54.805zm194.49 112.379c-8.49 21.006-17.71 41.995-26.93 62.984-9.51 20.829-18.55 41.515-28.62 62.022-9.78 20.669-19.85 41.176-29.91 61.684-10.06 20.508-20.68 40.695-31.31 60.882 5.82-10.004 11.46-19.706 17.28-29.71 5.54-10.165 10.91-20.027 16.45-30.192 10.62-20.187 20.68-40.695 30.75-61.203 9.78-20.668 19-41.657 27.77-62.503 8.67-21.31 17.15-42.316 24.52-63.964z" fill="#fff"/><path d="M1417.24 590.528a548.77 548.77 0 00-15.01 29.553c-4.67 9.911-9.23 20.286-13.33 30.517a578.334 578.334 0 00-11.46 31.176c-3.54 10.553-6.62 20.962-8.86 31.852 2-5.348 3.54-10.552 5.64-15.436 1.83-5.043 3.82-10.392 5.65-15.435 4.1-10.232 7.92-20.624 12.02-30.855l12.59-30.534 12.76-30.838zm250.18 144.323l-20.46 26.039-20.47 26.039c-6.92 8.626-13.83 17.253-21.03 25.718-3.51 4.081-7.2 8.466-10.71 12.547-3.68 4.385-7.19 8.465-10.7 12.546 8.14-7.519 15.72-15.36 23.48-23.504a584.031 584.031 0 0021.6-25.397 546.677 546.677 0 0020.08-26.665c6.17-8.643 12.24-17.751 18.21-27.323z" fill="#fff" stroke="#fff" stroke-width="2"/><path d="M1727.63 342.817c-84.59-47.758-146.46-31.808-162.45-10.733-15.99 21.074-17.76 73.497-17.76 73.497 57.71-.908 120.5 38.356 120.5 38.356s66.47 33.708 94.23 82.874c0 0 45.54-27.709 56.21-51.789 10.85-24.399-6.14-84.448-90.73-132.205z" fill="#fff"/><path d="M1727.65 342.799c-17.45-9.851-35.84-18.112-55.25-23.981l-3.63-1.201-3.81-.882-7.34-1.599c-4.89-1.066-9.97-1.814-15.05-2.561-10.05-1.011-20.58-1.871-30.69-.79-10.39.913-20.76 3.114-30.59 7.739a57.035 57.035 0 00-13.53 8.895c-4.3 3.934-6.52 9.038-9.04 13.974-4.45 10.207-6.75 20.779-8.57 31.201-1.81 10.422-3.04 21.177-3.48 31.949l-.08.803.78.016c10.61.056 21.44 1.083 32 3.23 10.57 2.148 20.75 4.931 30.86 8.517 10.11 3.586 19.84 7.809 29.27 11.864 9.55 4.54 18.9 9.398 27.88 14.892 9.36 4.858 18.34 10.352 27.13 16.164 8.8 5.812 17.21 12.26 25.15 18.859 8.23 6.766 15.79 14 22.97 21.871 7.18 7.871 13.21 16.362 18.86 25.488l.41.652.67-.469c9.32-5.762 18.04-11.859 26.55-18.925 8.32-6.748 16.72-14.3 23.35-22.853 3.41-4.435 6.52-9.037 7.86-14.642 1.44-5.119 1.71-10.906 1.11-15.907-.82-10.636-4.05-20.518-8.44-29.779-4.39-9.262-10.13-17.586-16.05-25.591-3.2-3.928-6.4-7.855-9.79-11.465l-5.08-5.414-2.69-2.79-2.88-2.473c-14.71-13.818-31.41-24.941-48.86-34.792zm0 0c17.26 10.169 33.77 21.61 48.67 35.11l2.88 2.473 2.69 2.79 5.08 5.414c3.39 3.61 6.59 7.537 9.8 11.465 5.92 8.005 11.65 16.329 15.85 25.909 4.1 9.094 7.33 18.976 8.15 29.612.41 5.319.04 10.621-1.22 15.422-1.45 5.12-4.56 9.722-7.78 13.84-6.62 8.553-14.84 15.786-23.16 22.534-8.32 6.748-17.53 12.996-26.37 18.607l1.08.183c-5.47-9.444-11.98-17.784-18.97-25.973-7.19-7.87-14.74-15.105-22.97-21.871-8.23-6.766-16.65-13.214-25.44-19.026a456.523 456.523 0 00-27.24-16.649 230.625 230.625 0 00-28.37-14.741c-9.54-4.54-19.46-8.444-29.57-12.03-10.1-3.587-20.48-6.052-30.85-8.518-10.56-2.147-21.39-3.173-32.49-3.079l.7.819c.26-10.454 1.48-21.209 3.3-31.631 1.81-10.422 4.11-20.994 8.37-30.883 2.04-4.786 4.56-9.722 8.37-13.506a41.545 41.545 0 0113.05-8.743c9.64-4.307 19.9-6.993 30.3-7.906 10.4-.914 20.53-.706 30.87.472 5.08.747 10.16 1.495 15.05 2.561l7.34 1.598 3.82.883 3.63 1.201c19.59 5.551 37.98 13.812 55.43 23.663zm-275.93 158.603l42.83-71.508c14.1-23.532 27.91-47.224 41.73-70.917l-2.88-.836c-1.16 9.054-2.33 18.109-3.77 27.004-.72 4.447-1.62 9.198-2.62 13.485-1.01 4.287-2.19 8.877-3.65 13.307l.18-.303c-7.8 13.365-15.77 27.033-23.28 40.559-7.52 13.525-15.49 27.194-23 40.72-3.05 3.931-7.21 7.221-11.79 8.654-2.29.717-4.86 1.273-7.08 1.221-2.21-.051-4.35-.87-6.67-1.386zm0 0c2.14.819 4.56 1.799 6.78 1.851 2.49.211 4.89-.041 7.18-.757 2.29-.717 4.75-1.737 6.84-3.382 2.08-1.645 4.16-3.29 5.68-5.256 8.08-13.204 16.05-26.873 24.13-40.078 8.07-13.204 16.04-26.873 23.84-40.238 1.46-4.43 2.64-9.021 3.82-13.611 1.18-4.591 1.9-9.038 2.8-13.789 1.62-9.198 2.79-18.253 3.67-27.469l.84-7.215-3.72 6.379c-14 23.996-27.89 48.457-41.43 72.31l-40.43 71.255z" fill="#fff"/><path d="M1451.82 501.353c34.25-58.126 83.51-143.287 83.51-143.287s-3.63 36.376-9.92 54.229l-47.07 80.751c-.45.143-11.16 14.663-26.52 8.307z" fill="#fff"/><path d="M1483.82 496.433l49.66-83.17c5.76-.52 11.65.706 17.25 1.767 5.59 1.062 11.3 2.601 16.71 3.977 10.94 3.227 21.79 7.246 31.98 11.726 20.86 8.813 41.08 19.356 60.93 30.526 19.67 11.483 39.15 23.28 57.23 36.792 9.18 6.838 17.89 13.825 26.22 21.439 3.93 3.881 8.15 7.927 11.89 12.121 3.75 4.195 7.3 8.703 9.91 13.509l-.03-1.269-49.66 83.171c-1.19 2.67-1.62 5.356-2.04 8.042-.43 2.686-.26 5.7.27 8.088.34 2.701 1.64 5.104 2.95 7.507 1.3 2.403 3.45 4.03 5.3 5.493l-.24-2.223-8.53 14.411c-2.79 4.699-6.05 9.548-9.12 14.083-6.34 9.383-13.08 18.125-20.58 26.851-7.32 8.413-15.23 16.498-23.93 23.299-8.7 6.801-18.48 12.154-28.96 12.104-21.31 1.797-42.17-2.419-61.91-8.516-19.85-6.573-38.69-15.505-56.5-25.525-18.1-10.184-35.65-21.308-51.6-34.461-15.76-13.466-29.94-28.961-39.29-48.005-5.57-8.986-5.63-20.715-3.94-31.458 1.7-10.743 4.93-21.456 8.93-32.153 7.82-21.082 18.16-41.163 30.25-60.258 2.23.836 4.64 1.36 7.24 1.57 2.6.21 5.1-.058 7.67-1.116 4.11-1.028 8.75-4.265 11.94-8.322zm0 0c-3.19 4.057-7.83 7.294-12.79 9.097-2.39.745-5.07 1.326-7.48.803-2.6-.21-5.02-.733-7.24-1.57-12.1 19.095-22.44 39.176-30.55 60.094-3.81 10.384-7.23 21.41-8.92 32.153-.85 5.372-1.11 11.072-.71 16.31.34 2.701.69 5.402 1.51 7.954.83 2.552 2.13 4.955 3.14 7.194 9.34 19.044 23.33 34.852 38.92 48.632 15.76 13.466 33.12 24.903 51.51 35.252 18.1 10.184 36.76 19.429 56.9 26.167 19.85 6.574 41 10.954 63.08 9.173 2.78-.104 5.28-.371 8.43-1.101 1.44-.447 2.87-.894 4.12-1.028 1.43-.447 2.57-1.058 4-1.505 5.33-2.431 9.98-5.667 14.62-8.903 9.17-6.95 17.08-15.034 24.58-23.761a293.626 293.626 0 0020.77-27.164c3.26-4.849 6.33-9.384 9.3-14.396l8.73-14.725.74-1.253-.98-.97c-1.86-1.464-3.43-2.762-4.62-4.688-1.2-1.925-2.21-4.164-2.63-6.074-.53-2.388-.48-4.447-.06-7.133.24-2.372.96-4.894 1.78-6.938l-.19.313 49.08-83.499.37-.626-.4-.642c-2.81-5.761-6.56-9.956-10.3-14.15-3.74-4.195-7.96-8.241-12.18-12.286-8.34-7.614-17.34-14.765-26.7-21.29-18.56-13.363-38.04-25.159-57.89-36.329-20.04-10.857-40.26-21.4-61.3-29.899-10.67-4.332-21.23-8.186-32.46-11.578-5.71-1.54-11.12-2.915-16.72-3.976-5.6-1.062-11.38-1.811-17.43-1.455l-50.03 83.797z" fill="#fff"/><path d="M1484.68 496.874l-.03.046-.03.042-.8-.574.8.575v.005l-.01.011-.03.038c-.02.032-.06.077-.11.135-.09.117-.22.283-.4.491-.35.415-.87.995-1.54 1.668-1.35 1.344-3.31 3.07-5.8 4.591-4.83 2.949-11.67 5.143-19.7 2.202l-.01.011-.02.031-.02.031-.02.031-.01.031-.02.031-.02.031-.02.031-.02.031-.02.031-.01.031-.02.031-.02.031-.02.031-.02.031-.02.031-.01.031-.02.03-.02.031-.02.031-.02.031-.02.031-.01.031-.02.031-.02.031-.02.031-.02.03-.02.031-.01.031-.02.031-.02.031-.02.031-.02.03-.02.031-.01.031-.02.031-.02.03-.02.031-.02.031-.01.031-.02.031-.02.03-.02.031-.02.031-.02.03-.01.031-.02.031-.02.031-.02.03-.02.031-.01.031-.02.03-.02.031-.02.031-.02.03-.02.031-.01.031-.02.03-.02.031-.02.03-.02.031-.01.031-.02.03-.02.031-.02.03-.02.031-.02.031-.01.03-.02.031-.02.03-.02.031-.02.03-.01.031-.02.03-.02.031-.02.03-.02.031-.01.03-.02.031-.02.03-.02.031-.02.03-.01.031-.02.03-.02.03-.02.031-.02.03-.01.031-.02.03-.02.031-.02.03-.02.03-.01.031-.02.03-.02.03-.02.031-.02.03-.01.03-.02.031-.02.03-.02.03-.02.031-.01.03-.02.03-.02.031-.02.03-.02.03-.01.03-.02.031-.02.03-.02.03-.02.031-.01.03-.02.03-.02.03-.02.03-.01.031-.02.03-.02.03-.02.03-.02.03-.01.031-.02.03-.02.03-.02.03-.02.03-.01.03-.02.03-.02.031-.02.03-.02.03-.01.03-.02.03-.02.03-.02.03-.01.03-.02.03-.02.03-.02.03-.02.03-.01.03-.02.03-.02.03-.02.03-.01.03-.02.03-.02.03-.02.03-.02.03-.01.03-.02.03-.02.03-.02.03-.01.03-.02.03-.02.03-.02.03-.01.03-.02.03-.02.03-.02.03-.02.029-.01.03-.02.03-.02.03-.02.03-.01.03-.02.03-.02.029-.02.03-.01.03-.02.03-.02.03-.02.029-.02.03-.01.03-.02.03-.02.03-.02.029-.01.03-.02.03-.02.03-.02.029-.01.03-.02.03-.02.029-.02.03-.01.03-.02.03-.02.029-.02.03-.01.03-.02.029-.02.03-.02.03-.02.029-.01.03-.02.029-.02.03-.02.03-.01.029-.02.03-.02.029-.02.03-.01.03-.02.029-.02.03-.02.029-.01.03-.02.029-.02.03-.02.029-.01.03-.02.029-.02.03-.02.029-.01.03-.02.029-.02.03-.02.029-.01.03-.02.029-.02.03-.02.029-.01.03-.02.029-.02.029-.01.03-.02.029-.02.03-.02.029-.01.029-.02.03-.02.029-.02.03-.01.029-.02.029-.02.03-.02.029-.01.029-.02.03-.02.029-.02.029-.01.029-.02.03-.02.029-.02.029-.01.03-.02.029-.02.029-.01.029-.02.03-.02.029-.02.029-.01.029-.02.029-.02.03-.02.029-.01.029-.02.029-.02.029-.01.03-.02.029-.02.029-.02.029-.01.029-.02.029-.02.029-.02.029-.01.03-.02.029-.02.029-.01.029-.02.029-.02.029-.02.029-.01.029-.02.029-.02.029-.02.029-.01.029-.02.029-.02.029-.01.029-.02.029-.02.029-.02.029-.01.029-.02.029-.02.029-.01.029-.02.029-.02.029-.02.029-.01.029-.02.029-.02.029-.01.029-.02.029-.02.029-.02.028-.01.029-.02.029-.02.029-.01.029-.02.029-.02.029-.01.028-.02.029-.02.029-.02.029-.01.029-.02.028-.02.029-.01.029-.02.029-.02.029-.02.028-.01.029-.02.029-.02.029-.01.028-.02.029-.02.029-.01.029-.02.028-.02.029-.02.029-.01.028-.02.029-.02.029-.01.028-.02.029-.02.029-.01.028-.02.029-.02.029-.02.028-.01.029-.02.028-.02.029-.01.029-.02.028-.02.029-.01.028-.02.029-.02.028-.01.029-.02.029-.02.028-.02.029-.01.028-.02.029-.02.028-.01.029-.02.028-.02.029-.01.028-.02.029-.02.028-.01.028-.02.029-.02.028-.01.029-.02.028-.02.029-.02.028-.01.028-.02.029-.02.028-.01.029-.02.028-.02.028-.01.029-.02.028-.02.028-.01.029-.02.028-.02.028-.01.029-.02.028-.02.028-.01.029-.02.028-.02.028-.01.029-.02.028-.02.028-.01.028-.02.029-.02.028-.01.028-.02.028-.02.028-.01.029-.02.028-.02.028-.02.028-.01.028-.02.029-.02.028-.01.028-.02.028-.02.028-.01.028-.02.029-.02.028-.01.028-.02.028-.02.028-.01.028-.02.028-.02.028-.01.028-.02.028-.01.029-.02.028-.02.028-.01.028-.02.028-.02.028-.01.028-.02.028-.02.028-.01.028-.02.028-.02.028-.01.028-.02.028-.02.028-.01.028-.02.028-.02.027-.01.028-.02.028-.02.028-.01.028-.02.028-.02.028-.01.028-.02.028-.02.028-.01.027-.02.028-.02.028-.01.028-.02.028-.01.028-.02.028-.02.027-.01.028-.02.028-.02.028-.01.028-.02.027-.02.028-.01.028-.02.028-.02.027-.01.028-.02.028-.02.028-.01.027-.02.028-.01.028-.02.027-.02.028-.01.028-.02.028-.02.027-.01.028-.02.028-.02.027-.01.028-.02.027-.01.028-.02.028-.02.027-.01.028-.02.028-.02.027-.01.028-.02.027-.02.028-.01.027-.02.028-.01.028-.02.027-.02.025v.011l-.02.038-.09.154c-.08.136-.2.339-.35.606-.31.533-.75 1.321-1.32 2.336-1.13 2.031-2.72 4.97-4.6 8.599-3.75 7.259-8.6 17.271-13.01 28.289-4.42 11.023-8.4 23.024-10.41 34.267-2.01 11.268-2.02 21.641 1.33 29.496v.002c17.58 41.382 62.04 70.181 92.12 87.103 30.07 16.922 77.89 40.049 123.45 34.191h.01c8.65-1.095 17.87-6.293 26.87-13.627 8.99-7.316 17.67-16.671 25.25-25.913 7.58-9.238 14.06-18.338 18.63-25.132a316.58 316.58 0 005.34-8.18c.62-.984 1.1-1.755 1.42-2.279.16-.262.28-.463.37-.597l.09-.152.02-.038.01-.009v-.001l.01-.026.02-.028.01-.027.02-.028.02-.027.01-.028.02-.028.02-.027.01-.028.02-.027.01-.028.02-.028.02-.027.01-.028.02-.027.02-.028.01-.028.02-.027.02-.028.01-.028.02-.027.02-.028.01-.028.02-.027.01-.028.02-.028.02-.028.01-.027.02-.028.02-.028.01-.028.02-.027.02-.028.01-.028.02-.028.02-.027.01-.028.02-.028.01-.028.02-.028.02-.028.01-.027.02-.028.02-.028.01-.028.02-.028.02-.028.01-.028.02-.027.02-.028.01-.028.02-.028.02-.028.01-.028.02-.028.02-.028.01-.028.02-.028.02-.028.01-.028.02-.028.01-.028.02-.028.02-.027.01-.028.02-.028.02-.029.01-.028.02-.028.02-.028.01-.028.02-.028.02-.028.01-.028.02-.028.02-.028.01-.028.02-.028.02-.028.01-.028.02-.028.02-.029.01-.028.02-.028.02-.028.01-.028.02-.028.02-.028.01-.029.02-.028.02-.028.01-.028.02-.028.02-.029.01-.028.02-.028.02-.028.01-.028.02-.029.02-.028.01-.028.02-.028.02-.029.01-.028.02-.028.02-.029.01-.028.02-.028.02-.028.02-.029.01-.028.02-.028.02-.029.01-.028.02-.028.02-.029.01-.028.02-.029.02-.028.01-.028.02-.029.02-.028.01-.029.02-.028.02-.028.01-.029.02-.028.02-.029.01-.028.02-.029.02-.028.02-.029.01-.028.02-.029.02-.028.01-.029.02-.028.02-.029.01-.028.02-.029.02-.028.01-.029.02-.028.02-.029.02-.029.01-.028.02-.029.02-.028.01-.029.02-.028.02-.029.01-.029.02-.028.02-.029.01-.029.02-.028.02-.029.02-.029.01-.028.02-.029.02-.029.01-.028.02-.029.02-.029.01-.028.02-.029.02-.029.02-.029.01-.028.02-.029.02-.029.01-.029.02-.028.02-.029.01-.029.02-.029.02-.029.02-.028.01-.029.02-.029.02-.029.01-.029.02-.028.02-.029.02-.029.01-.029.02-.029.02-.029.01-.029.02-.029.02-.029.02-.028.01-.029.02-.029.02-.029.01-.029.02-.029.02-.029.02-.029.01-.029.02-.029.02-.029.01-.029.02-.029.02-.029.02-.029.01-.029.02-.029.02-.029.01-.029.02-.029.02-.029.02-.029.01-.029.02-.029.02-.029.01-.029.02-.03.02-.029.02-.029.01-.029.02-.029.02-.029.02-.029.01-.029.02-.03.02-.029.01-.029.02-.029.02-.029.02-.029.01-.03.02-.029.02-.029.02-.029.01-.029.02-.03.02-.029.02-.029.01-.029.02-.03.02-.029.01-.029.02-.03.02-.029.02-.029.01-.029.02-.03.02-.029.02-.029.01-.03.02-.029.02-.029.02-.03.01-.029.02-.029.02-.03.02-.029.01-.03.02-.029.02-.029.01-.03.02-.029.02-.03.02-.029.01-.029.02-.03.02-.029.02-.03.01-.029.02-.03.02-.029.02-.03.01-.029.02-.03.02-.029.02-.03.01-.029.02-.03.02-.029.02-.03.01-.029.02-.03.02-.03.02-.029.01-.03.02-.029.02-.03.02-.03.01-.029.02-.03.02-.029.02-.03.01-.03.02-.029.02-.03.02-.03.01-.029.02-.03.02-.03.02-.029.02-.03.01-.03.02-.029.02-.03.02-.03.01-.03.02-.029.02-.03.02-.03.01-.03.02-.029.02-.03.02-.03.01-.03.02-.03.02-.029.02-.03.01-.03.02-.03.02-.03.02-.029.02-.03.01-.03.02-.03.02-.03.02-.03.01-.03.02-.03.02-.029.02-.03.01-.03.02-.03.02-.03.02-.03.02-.03.01-.03.02-.03.02-.03.02-.03.01-.03.02-.03.02-.03.02-.03.02-.03.01-.03.02-.03.02-.03.02-.03.01-.03.02-.03.02-.03.02-.03.02-.03.01-.03.02-.03.02-.03.02-.03.02-.031.01-.03.02-.03.02-.03.02-.03.01-.03.02-.03.02-.031.02-.03.02-.03.01-.03.02-.03.02-.03.02-.031.02-.03.01-.03.02-.03.02-.03.02-.031.01-.03.02-.03.02-.03.02-.031.02-.03.01-.03.02-.031.02-.03.02-.03.02-.03.01-.031.02-.03.02-.03.02-.031.02-.03.01-.03.02-.031.02-.03.02-.031.02-.03.01-.03.02-.031.02-.03.02-.03.02-.031.01-.03.02-.031.02-.03.02-.031.02-.03.01-.031.02-.03.02-.03.02-.031.02-.03.01-.031.02-.03.02-.031.02-.03.02-.031.01-.031.02-.03.02-.031.02-.03.02-.031.02-.03.01-.031.02-.03.02-.031.02-.031.02-.03.01-.031.02-.03.02-.031.02-.031.02-.03.01-.031.02-.031.02-.03.02-.031.02-.031.02-.03.01-.031.02-.031.02-.03.02-.031.02-.031.01-.03.02-.031.02-.031.02-.031.02-.03.02-.031.01-.031.02-.031.02-.031.02-.03.02-.031.02-.031.01-.031.02-.031.02-.03.02-.031.02-.031.01-.031.02-.031.02-.031.02-.03.02-.031.02-.031.01-.031.02-.031.02-.031.02-.031.02-.031.02-.031.01-.031.02-.03.02-.031.02-.031.02-.031.02-.031.01-.031.02-.031.02-.031.02-.031.02-.031.02-.031.01-.031.02-.031.02-.031.01-.011c-6.63-5.308-8.11-12.185-7.9-17.733.11-2.86.66-5.382 1.18-7.186.27-.904.52-1.631.71-2.137.1-.252.18-.45.24-.586.03-.068.05-.121.07-.158l.01-.043.01-.013v-.005l.92.39-.92-.391.03-.048.02-.046 49.11-82.895c-.11-.218-.26-.521-.47-.906-.51-.914-1.35-2.294-2.64-4.124-2.6-3.659-7.05-9.116-14.43-16.229-14.76-14.227-41.23-35.07-88.03-61.404-46.81-26.334-78.57-38.258-98.59-43.602-10.01-2.672-17.08-3.697-21.63-4.058-2.28-.181-3.92-.195-4.99-.165-.45.012-.79.032-1.04.051l-49.11 82.895z" fill="#E14443" stroke="#fff" stroke-width="2"/><path d="M1720.3 633.23l47.06-80.75c12.47-14.326 42.45-35.627 42.45-35.627s-49.82 84.839-83.5 143.286c-13.35-10.465-6.01-26.909-6.01-26.909z" fill="#fff"/><path d="M1720.25 633.275l23.83-40.23 24.11-40.07-.17.304c3.14-3.467 6.39-6.469 9.81-9.775 3.25-3.003 6.96-6.149 10.77-8.83 7.05-5.684 14.57-11.512 22.01-16.571l-2.18-2.052c-6.9 11.844-14.27 23.831-20.89 35.835-6.91 11.844-13.99 23.992-20.62 35.996-13.7 24.152-26.95 48.16-40.94 72.152l.45-.144c-1.78-1.426-3.57-2.853-4.83-5.191-1.43-2.034-2.41-4.211-2.92-6.532-.86-4.945-.07-10.159 1.57-14.892zm0 0c-1.92 4.573-2.71 9.787-1.85 14.732.51 2.32 1.31 4.801 2.75 6.836 1.43 2.034 3.04 3.764 4.83 5.191l.28.16.17-.304c13.99-23.991 28.37-47.358 42.64-71.189 7.18-11.683 14.27-23.831 21.17-35.674 6.91-11.844 13.99-23.992 20.9-35.836l3.54-6.073-5.71 4.022c-7.34 5.524-14.68 11.048-21.91 17.036-3.53 2.842-6.95 6.148-10.66 9.294-3.42 3.306-6.85 6.612-9.71 10.239l-22.99 40.711-23.45 40.855z" fill="#fff"/></g></svg>