<svg width="63" height="63" fill="none" xmlns="http://www.w3.org/2000/svg"><path d="M53.774 9.226C47.824 3.276 39.914 0 31.5 0 23.086 0 15.175 3.277 9.226 9.226 3.276 15.176 0 23.086 0 31.5c0 8.414 3.276 16.324 9.226 22.274C15.176 59.724 23.086 63 31.5 63c8.414 0 16.324-3.277 22.274-9.226C59.724 47.824 63 39.914 63 31.5c0-8.414-3.277-16.324-9.226-22.274zM31.5 59.31c-15.334 0-27.809-12.475-27.809-27.809 0-15.334 12.475-27.809 27.809-27.809 15.334 0 27.809 12.475 27.809 27.809 0 15.334-12.475 27.809-27.809 27.809z" fill="#212F60"/><path d="M46.55 21.394a1.847 1.847 0 00-2.61 0l-16.298 16.3-8.58-8.58a1.846 1.846 0 00-2.61 2.61l9.885 9.884a1.842 1.842 0 002.61.001l17.604-17.604c.72-.721.72-1.89 0-2.61z" fill="#E14443"/></svg>