<svg width="129" height="53" fill="none" xmlns="http://www.w3.org/2000/svg"><path d="M0 38.3c0-.4.1-.8.3-1.1.2-.4.4-.7.7-.9.3-.3.6-.5.9-.6.3-.2.7-.2 1.1-.2.6 0 1.2.2 1.6.6.3.3.6.5.9.8.3.3.7.5 1.2.7.5.2 1 .4 1.6.5.6.1 1.4.2 2.2.2 1.2 0 2.3-.2 3.3-.6.9-.4 1.7-.9 2.3-1.4.6-.6 1-1.2 1.3-1.8.3-.7.4-1.3.4-1.9 0-1.2-.1-2.2-.3-3-.2-.8-.6-1.3-1.2-1.7-.5-.4-1.3-.7-2.2-.8-.9-.1-2.1-.2-3.6-.2H7.7c-.8.1-1.4.1-1.9.1s-.9 0-1.2.1h-.9c-.3 0-.6-.1-.8-.3-.2-.2-.4-.4-.5-.8-.1-.3-.2-.6-.3-1-.1-.3-.1-.7-.1-.9v-.8c0-.3.1-.6.1-1.1 0-.4 0-1 .1-1.7v-5.6c0-.7-.1-1.3-.1-1.7 0-.4 0-.8-.1-1.1v-.8c0-.3 0-.6.1-.9.1-.3.2-.7.3-1 .1-.3.3-.6.5-.8.2-.2.5-.3.7-.3.6 0 1.7 0 3.3.1 1.6.1 3.6.1 5.8.1h2.9c.8 0 1.5-.1 2.1-.1.6 0 1.1 0 1.5-.1h1c.3 0 .5.1.7.3.2.2.4.4.5.8.1.3.2.6.3 1 .1.3.1.7.1.9 0 .3 0 .6-.1.9-.1.3-.2.7-.3 1-.1.3-.3.6-.5.8-.2.2-.5.3-.7.3h-1c-.4 0-.9-.1-1.5-.1s-1.3 0-2.1-.1H9.8c-.5 0-.9.2-1.1.4-.3.2-.5.5-.6.9-.1.3-.2.7-.3 1.1v2.4c0 .4.1.8.2 1.2.1.4.3.7.6.9.3.2.7.4 1.2.4h.7c2 0 3.8.2 5.5.5 1.7.3 3.1.9 4.3 1.7 1.2.8 2.1 2 2.8 3.4.7 1.4 1 3.3 1 5.6 0 1.7-.4 3.2-1.1 4.6-.7 1.4-1.7 2.6-3 3.5-1.2 1-2.7 1.7-4.4 2.2-1.7.5-3.4.8-5.2.8-1.7 0-3.2-.2-4.5-.5-1.3-.3-2.4-.8-3.3-1.3-.9-.5-1.5-1.1-2-1.8-.4-.6-.6-1.2-.6-1.8zm24.2-17.6c0-1.8.3-3.5.9-5 .6-1.5 1.4-2.8 2.5-3.9s2.4-1.9 3.9-2.5c1.5-.6 3.2-.9 5-.9 1.8 0 3.5.3 5 .9 1.5.6 2.8 1.4 3.9 2.5s1.9 2.4 2.5 3.9c.6 1.5.9 3.2.9 5 0 1.8-.3 3.5-.9 5-.6 1.5-1.4 2.8-2.5 3.9s-2.4 1.9-3.9 2.5c-1.5.6-3.2.9-5 .9-1.8 0-3.5-.3-5-.9-1.5-.6-2.8-1.4-3.9-2.5s-1.9-2.4-2.5-3.9c-.6-1.5-.9-3.1-.9-5zm5.9 0c0 2.5.5 4.3 1.6 5.3s2.7 1.5 4.7 1.5c2.1 0 3.6-.5 4.7-1.5s1.6-2.8 1.6-5.3-.5-4.3-1.6-5.3-2.7-1.5-4.7-1.5c-2.1 0-3.6.5-4.7 1.5-1 1-1.6 2.8-1.6 5.3z" fill="#E14443"/><path d="M59.4 31.2c0-1.8.3-3.5.9-5 .6-1.5 1.4-2.8 2.5-3.9s2.4-1.9 3.9-2.5c1.5-.6 3.2-.9 5-.9 1.7 0 3.2.2 4.5.5 1.3.3 2.4.8 3.3 1.3.9.5 1.5 1.1 2 1.8.5.6.7 1.2.7 1.8 0 .4-.1.8-.3 1.1-.2.4-.4.7-.7.9-.3.3-.6.5-.9.6-.3.2-.7.2-1.1.2-.6 0-1.2-.2-1.6-.6-.3-.3-.6-.5-.9-.8-.3-.3-.7-.5-1.2-.7-.5-.2-1-.4-1.6-.5-.6-.1-1.4-.2-2.2-.2-2.1 0-3.6.5-4.7 1.5s-1.6 2.8-1.6 5.3.5 4.3 1.6 5.3 2.7 1.5 4.7 1.5c.9 0 1.6-.1 2.2-.2.6-.1 1.2-.3 1.6-.5.5-.2.9-.5 1.2-.7.3-.3.6-.5.9-.8.4-.4 1-.6 1.6-.6.4 0 .7.1 1.1.2.3.2.7.4.9.6.3.3.5.6.7.9.2.3.3.7.3 1.2 0 .6-.2 1.2-.7 1.8-.5.6-1.1 1.2-2 1.8-.9.5-2 1-3.3 1.3-1.3.3-2.8.5-4.5.5-1.8 0-3.5-.3-5-.9-1.5-.6-2.8-1.4-3.9-2.5s-1.9-2.4-2.5-3.9c-.6-1.4-.9-3.1-.9-4.9zm25 0c0-1.8.3-3.5.9-5 .6-1.5 1.4-2.8 2.5-3.9s2.4-1.9 3.9-2.5c1.5-.6 3.2-.9 5-.9.7 0 1.3 0 1.9.1.6.1 1.2.2 1.9.3l2.1.3c.8.1 1.7.1 2.7.1h1.1c.3 0 .6-.1 1-.1.5-.1 1 .1 1.3.4.3.3.5.8.5 1.3 0 .9-.1 1.7-.1 2.4 0 .8-.1 1.5-.1 2.3 0 .8-.1 1.6-.1 2.4v5.4c0 .8.1 1.6.1 2.4 0 .8.1 1.5.1 2.3 0 .8.1 1.6.1 2.4 0 .5-.1 1-.5 1.3-.3.3-.8.5-1.3.4-.4 0-.7-.1-1-.1h-1.1c-1.1 0-2.1 0-2.9.1-.8.1-1.5.2-2.1.3l-1.8.3c-.5.1-1.2.1-1.9.1-1.8 0-3.5-.3-5-.9-1.5-.6-2.8-1.4-3.9-2.5s-1.9-2.4-2.5-3.9c-.5-1.3-.8-3-.8-4.8zm12.3 6.9c2.1 0 3.6-.5 4.7-1.5s1.6-2.8 1.6-5.3-.5-4.3-1.6-5.3-2.7-1.5-4.7-1.5c-2.1 0-3.6.5-4.7 1.5s-1.6 2.8-1.6 5.3.5 4.3 1.6 5.3c1.1.9 2.7 1.5 4.7 1.5zm17.1 3.4v-2.4c0-.7.1-1.5.1-2.3 0-.8 0-1.6.1-2.5v-5.7c0-.8 0-1.6-.1-2.4 0-.8-.1-1.5-.1-2.3v-2.4c0-.5.2-1 .5-1.3.3-.3.8-.5 1.3-.4.4 0 .7.1 1 .1h1.1c1.2 0 2.2 0 2.9-.1.7-.1 1.4-.2 1.9-.3l1.8-.3c.7-.1 1.5-.1 2.7-.1.3 0 .5.1.7.3.2.2.4.4.5.7l.3.9c.1.3.1.6.1.9 0 .3 0 .6-.1.9l-.3.9c-.1.3-.3.5-.5.7-.2.2-.5.3-.7.3-1.2 0-2.3.1-3.1.4-.9.2-1.5.6-2.1 1.2-.5.5-.9 1.3-1.1 2.1-.2.9-.3 1.9-.3 3.2v3c0 .9.1 1.7.1 2.5s0 1.6.1 2.3v2.4c0 .3-.1.5-.4.7-.2.2-.5.4-.9.5-.4.1-.7.2-1.1.3-.4.1-.7.1-1 .1-.3 0-.6 0-1-.1s-.8-.2-1.1-.3c-.4-.1-.7-.3-.9-.5-.2-.5-.4-.8-.4-1z" fill="#212F60"/><path d="M42.5 48.1c.2-.5.6-1.6 1.3-3.3.7-1.7 1.5-3.7 2.4-5.9.9-2.2 1.8-4.6 2.8-7.1 1-2.5 1.9-4.7 2.7-6.7.8-2.1 1.7-4.4 2.6-6.8.9-2.5 1.8-4.8 2.7-7.1.9-2.3 1.6-4.2 2.2-6 .6-1.7 1-2.8 1.2-3.3.2-.5.5-.9.8-1.2.3-.3.7-.5 1.1-.6.3-.1.6-.1 1-.1s.7.1.9.2c.3.1.5.3.8.5.3.2.5.5.6.8.2.3.3.7.3 1.2s-.1.9-.3 1.4c-.2.5-.6 1.6-1.3 3.3-.6 1.6-1.4 3.6-2.3 5.8-.9 2.2-1.8 4.6-2.8 7-1 2.4-1.9 4.7-2.7 6.8-.8 2-1.6 4.3-2.6 6.8-.9 2.5-1.8 4.9-2.7 7.1-.9 2.3-1.6 4.2-2.2 6-.6 1.7-1 2.8-1.2 3.3-.2.5-.4.9-.8 1.2-.3.3-.6.5-1 .7-.3.1-.7.2-1 .2-.3 0-.6-.1-.9-.2-.3-.1-.5-.3-.8-.5-.3-.2-.5-.5-.7-.8-.2-.3-.3-.7-.3-1.2-.1-.5 0-1 .2-1.5z" fill="#E14443"/></svg>