<svg width="285" height="49" fill="none" xmlns="http://www.w3.org/2000/svg"><path d="M24.467 48.21V18.234h6.087v11.811h12.038v-11.81h6.086V48.21h-6.086V35.837H30.554V48.21h-6.087zm28.438-29.976h18.392v5.792H58.978v5.872h9.938v5.792h-9.925v6.688h12.306v5.832H52.906V18.234zm29.709 5.792h-1.338v8.962h.602c2.876 0 5.98-1.177 5.98-4.52 0-2.944-2.516-4.442-5.204-4.442h-.04zm-7.45 24.184V18.234h7.45c6.046 0 11.276 3.866 11.276 10.273 0 6.528-5.591 10.34-11.597 10.34h-1.057v9.363h-6.073zm27.915-24.184V48.21h-6.072V18.234h15.476v5.792h-9.404zm15.182 9.243a9.877 9.877 0 002.886 7.02 9.883 9.883 0 007.013 2.905 9.854 9.854 0 007.022-2.93 9.964 9.964 0 002.876-6.995 10.206 10.206 0 00-2.675-6.942 9.667 9.667 0 00-7.17-3.063 9.686 9.686 0 00-7.183 3.063 10.26 10.26 0 00-2.675 6.942h-.094zm-5.979 0a15.218 15.218 0 015.123-11.557 16.588 16.588 0 0110.755-4.267 16.585 16.585 0 0110.848 4.187 15.225 15.225 0 015.123 11.557 15.397 15.397 0 01-4.896 11.343 16.25 16.25 0 01-11.075 4.414 16.254 16.254 0 01-11.076-4.414 15.363 15.363 0 01-4.895-11.343l.093.08zm40.423-9.296V48.21h-6.086V18.234h16.734v5.792l-10.648-.053zm23.462 9.764l-2.515-5.257-2.541 5.257h5.056zm2.555 5.538h-10.166l-4.307 8.935h-6.541l16.051-32.276L189.65 48.21h-6.688l-4.24-8.935zm19.409-15.396h-1.338v8.962h.602c2.876 0 5.966-1.164 5.966-4.521 0-2.943-2.501-4.44-5.19-4.44h-.04zM190.68 48.21V18.14h7.464c6.033 0 11.276 3.88 11.276 10.274 0 6.514-5.578 10.273-11.61 10.273h-1.044v9.523h-6.086zm32.959-14.392l-2.514-5.257-2.542 5.257h5.056zm2.555 5.537h-10.179l-4.294 8.855h-6.541l16.052-32.276 15.931 32.276h-6.688l-4.281-8.855zm11.918 8.855V18.234h6.087v11.811h12.038v-11.81h6.086V48.21h-6.086V35.837h-12.038V48.21h-6.087zm34.043 0V24.013h-6.233v-5.779h18.619v5.792h-6.3V48.21h-6.086zM.015 26.006v-7.023a15.798 15.798 0 016.836-1.538 15.516 15.516 0 0110.34 4.013 15.463 15.463 0 014.855 11.718 15.824 15.824 0 01-4.641 11.69A14.915 14.915 0 017.092 49a15.449 15.449 0 01-7.076-1.66v-6.969a11.397 11.397 0 007.036 2.782 8.855 8.855 0 008.574-7.437H3.453v-5.671h12.173a8.815 8.815 0 00-8.815-6.822 10.14 10.14 0 00-6.795 2.782M6.998 8.616c-.82.444-1.742.67-2.675.655A4.173 4.173 0 01.016 4.737 4.468 4.468 0 014.564.055a4.896 4.896 0 012.26.482v1.137a4.494 4.494 0 00-2.233-.575 3.317 3.317 0 00-3.237 3.584 3.197 3.197 0 003.21 3.558 4.36 4.36 0 002.14-.588l.294.963zM11.64 1.18H9.045V.136h6.648L15.32 1.18h-2.475v7.958H11.64V1.18zM18.301.137h1.846c.68-.04 1.36.104 1.966.414a2.675 2.675 0 011.338 2.475 2.675 2.675 0 01-1.578 2.541c-.57.225-1.18.334-1.793.321h-.508v3.25h-1.217l-.055-9zm1.78 4.762a2.66 2.66 0 001.216-.255 1.645 1.645 0 00.857-1.618 1.765 1.765 0 00-.736-1.632 2.434 2.434 0 00-1.338-.254h-.615v3.759h.615zM29.096.056h.896l3.464 9.083H32.12l-.816-2.395h-3.491l-.856 2.368h-1.271l3.41-9.056zm1.819 5.725l-.843-2.354c-.254-.762-.388-1.177-.508-1.498l-.522 1.511-.843 2.341h2.716zm7.598-1.164L35.557.137h1.404l2.314 3.557L41.71.136h1.364l-3.09 4.441 3.01 4.561h-1.378l-2.394-3.625-2.515 3.625h-1.351l3.157-4.52zm6.982.053a4.414 4.414 0 118.829 0 4.414 4.414 0 01-8.829 0zm7.544 0a3.158 3.158 0 10-6.273 0 3.156 3.156 0 106.273 0zM57.6.136h2.26c1.9 0 2.756 1.07 2.756 2.288a2.046 2.046 0 01-1.15 1.926 2.167 2.167 0 011.726 2.18c0 1.471-1.057 2.582-3.077 2.582H57.6V.136zm2.127 3.933c1.097 0 1.686-.562 1.686-1.458 0-.896-.495-1.458-1.66-1.458h-.882v2.916h.856zm.321 4.013c1.177 0 1.913-.455 1.913-1.565 0-1.11-.696-1.458-1.752-1.458H58.87v3.023h1.177zM68.904.056h.91l3.477 9.03h-1.338l-.842-2.342h-3.478l-.856 2.368H65.56L68.904.056zm1.832 5.672l-.843-2.355c-.267-.762-.4-1.177-.508-1.498-.094.321-.24.75-.522 1.512l-.842 2.34h2.715zm6.006.548c.361-.669.588-1.044.963-1.244a2.194 2.194 0 01-1.578-2.3A2.676 2.676 0 0179.069.055h2.448v9.082h-1.244V5.406h-1.337c-.268 0-.602.295-.99 1.097l-1.338 2.675H75.27l1.472-2.902zm2.448-1.86h1.083V1.14h-1.07a1.645 1.645 0 00-1.873 1.686c0 1.11.79 1.592 1.82 1.592M92.097.056h.897l3.478 9.03h-1.338l-.83-2.342h-3.49l-.857 2.368h-1.27l3.41-9.056zm1.82 5.725l-.843-2.354c-.254-.762-.388-1.177-.508-1.498l-.522 1.511-.843 2.341h2.716zM99.254.136h1.204V4.07h.883c1.337 0 1.511-1.846 2.1-3.09a1.512 1.512 0 011.431-.923 1.9 1.9 0 01.669.107V1.26a1.339 1.339 0 00-.468-.08.683.683 0 00-.656.414c-.441.816-.642 2.395-1.605 2.957.442.147.763.601 1.151 1.337l1.725 3.25h-1.338l-1.538-2.929c-.414-.802-.749-1.083-1.03-1.083h-1.337v4.013h-1.204l.013-9.003zm9.377 0h1.19v7.972h4.267V.136h1.204v7.972h1.097v3.545h-1.19V9.138h-6.568V.136zm10.714 0h1.191v6.996c.294-.442.682-1.004 1.217-1.686l4.013-5.35h1.164v9.042h-1.178V1.995a47.86 47.86 0 01-1.177 1.632l-4.173 5.511h-1.03l-.027-9.002zm10.848 4.534a4.433 4.433 0 011.205-3.286 4.432 4.432 0 016.432 0 4.435 4.435 0 011.205 3.287 4.433 4.433 0 01-1.205 3.287 4.432 4.432 0 01-4.966 1.023 4.432 4.432 0 01-2.407-2.543 4.433 4.433 0 01-.264-1.767zm7.558 0a3.154 3.154 0 00-1.847-3.236 3.157 3.157 0 00-4.427 3.237 3.154 3.154 0 001.847 3.236 3.16 3.16 0 003.645-.778 3.16 3.16 0 00.782-2.458zm4.588-4.534h1.204v3.88h4.708V.135h1.204v9.002h-1.204v-4.08h-4.708v4.08h-1.204V.136zm10.835 0h4.534l-.361 1.044h-2.956v2.849h2.929v1.043h-2.929v3.036h3.371v1.03h-4.588V.136zm7.959 0h1.832a3.81 3.81 0 011.966.415 2.68 2.68 0 011.338 2.474 2.678 2.678 0 01-1.578 2.542 4.537 4.537 0 01-1.846.32h-.522v3.251h-1.204l.014-9.002zm1.805 4.762c.421.016.839-.072 1.218-.254a1.649 1.649 0 00.856-1.619 1.775 1.775 0 00-.79-1.605 2.485 2.485 0 00-1.337-.28h-.616v3.758h.669zm6.515-4.762h1.217v3.88h4.708V.135h1.191v9.002h-1.191v-4.08h-4.708v4.08h-1.217V.136zm13.309-.08h.896l3.491 9.03h-1.337l-.843-2.342h-3.491l-.883 2.395h-1.338l3.505-9.083zm1.846 5.725l-.843-2.354-.495-1.498c-.093.32-.254.749-.521 1.511l-.843 2.341h2.702zm5.992.495a2.84 2.84 0 01.95-1.244 2.207 2.207 0 01-1.592-2.301 2.687 2.687 0 01.88-1.998 2.682 2.682 0 012.076-.677h2.448v9.082h-1.204V5.406h-1.337c-.281 0-.602.295-.99 1.097l-1.338 2.675h-1.404l1.511-2.902zm2.448-1.86h1.124V1.14h-1.084a1.633 1.633 0 00-1.792 1.686c0 1.11.789 1.591 1.819 1.591m10.366-4.28h1.204v3.932h.883c1.338 0 1.512-1.846 2.114-3.09a1.493 1.493 0 011.417-.923c.228-.006.455.03.669.107V1.26a1.203 1.203 0 00-.455-.08.693.693 0 00-.668.415c-.442.815-.642 2.394-1.592 2.956.428.147.762.602 1.137 1.337l1.739 3.237h-1.338L207.04 6.21c-.415-.802-.75-1.083-1.017-1.083h-1.338V9.14h-1.204V.137zm8.963 4.533a4.414 4.414 0 118.827 0 4.414 4.414 0 01-8.827 0zm7.544 0a3.154 3.154 0 00-1.847-3.236 3.157 3.157 0 00-4.426 3.236 3.154 3.154 0 004.426 3.237 3.154 3.154 0 001.847-3.237zm4.588-4.534h1.124l2.448 3.665c.361.549.588.883.815 1.258.201-.362.442-.763.79-1.338L232.04.109h1.11v9.03h-1.19V2.156c-.188.348-.482.816-.642 1.07l-2.074 3.304h-.602l-2.274-3.37a9.359 9.359 0 01-.601-.977v6.955h-1.218l.027-9.002zm12.333 0h6.741v9.002h-1.204V1.18h-4.347v7.958h-1.19V.136zm12.921-.08h.896l3.438 9.083h-1.338l-.789-2.395h-3.478l-.856 2.368h-1.337L249.83.056zm1.819 5.672l-.842-2.355-.495-1.498c-.094.321-.254.75-.522 1.512l-.843 2.34h2.702zm5.338-5.592h1.217v3.88h4.708V.135h1.191v9.002h-1.191v-4.08h-4.708v4.08h-1.217V.136zm10.848 0h1.203v6.996c.295-.442.669-1.004 1.204-1.686l4.013-5.35h1.177v9.042h-1.204V1.995a46.17 46.17 0 01-1.163 1.632l-4.187 5.511h-1.03l-.013-9.002zm11.958 6.14a2.83 2.83 0 01.949-1.244 2.207 2.207 0 01-1.565-2.3 2.67 2.67 0 011.837-2.555 2.675 2.675 0 011.106-.121h2.448v9.082h-1.204V5.406h-1.338c-.267 0-.602.295-.989 1.097l-1.338 2.675h-1.405l1.499-2.902zm2.461-1.86h1.123V1.14h-1.123a1.633 1.633 0 00-1.859 1.686c0 1.11.789 1.592 1.819 1.592" fill="#E14443"/></svg>