<svg width="278" height="49" fill="none" xmlns="http://www.w3.org/2000/svg"><path d="M69.524.506c3.576 0 6.499 1.567 7.723 2.743l-2.057 2.53c-.996-.897-3.217-2.122-5.699-2.122-4.506 0-7.315 3.086-7.315 7.331 0 4.246 2.678 7.332 7.364 7.332 2.727 0 5.078-1.437 6.107-2.433l1.943 2.596c-1.225 1.29-4.294 2.988-8.066 2.988-6.63 0-10.727-4.441-10.727-10.483 0-6.04 4.212-10.482 10.727-10.482zM89.967 18.32c4.147 0 7.217-3.119 7.217-7.332 0-4.212-3.07-7.33-7.217-7.33-4.164 0-7.217 3.118-7.217 7.33 0 4.213 3.053 7.332 7.217 7.332zm0-17.814c6.123 0 10.596 4.441 10.596 10.482 0 6.042-4.473 10.483-10.596 10.483-6.14 0-10.597-4.441-10.597-10.483 0-6.04 4.457-10.482 10.597-10.482zm25.063 17.357c2.319 0 3.2-1.29 3.2-2.694 0-1.518-1.061-2.743-3.151-2.743h-7.641v5.437h7.592zm-7.592-13.748v5.323l6.351-.033c2.27 0 3.445-1.257 3.445-2.743 0-1.371-1.012-2.547-3.02-2.547h-6.776zm14.172 11.087c0 2.955-1.894 5.813-6.792 5.813h-10.679V.964h10.058c4.066 0 6.417 2.514 6.417 5.355 0 1.6-.751 3.07-2.531 4.246 1.813.588 3.527 1.877 3.527 4.637zm13.177-4.523l8.882 10.336h-4.376l-7.429-8.769h-3.805v8.769h-3.298V.964h3.298v8.278h3.805l7.249-8.278h4.376l-8.702 9.715z" fill="#003790"/><path d="M153.841 18.32c4.148 0 7.217-3.119 7.217-7.332 0-4.212-3.069-7.33-7.217-7.33-4.163 0-7.216 3.118-7.216 7.33 0 4.213 3.053 7.332 7.216 7.332zm0-17.814c6.123 0 10.597 4.441 10.597 10.482 0 6.042-4.474 10.483-10.597 10.483-6.139 0-10.596-4.441-10.596-10.483 0-6.04 4.457-10.482 10.596-10.482zm32.77.458h3.168v20.05h-3.282V6.125l-6.596 8.784h-2.009l-6.58-8.785v14.892h-3.298V.964h3.184l7.707 10.286L186.611.964zm18.353 16.899c2.286 0 3.331-1.257 3.331-2.775 0-1.503-1.045-2.776-3.331-2.776h-7.445v5.551h7.445zm-.081-8.703c4.408 0 6.808 2.564 6.808 5.895 0 3.314-2.4 5.96-6.58 5.96H194.22V.964h15.61v3.151h-12.311V9.16h7.364zm14.744 3.838h6.906l-3.429-8.001-3.477 8zm10.368 8.017l-2.172-5.013h-9.486l-2.172 5.013h-3.608L221.259.964h3.642l8.702 20.05h-3.608zM250.943.964h3.298v20.05h-3.298V12.41h-11.609v8.605h-3.282V.964h3.282v8.31h11.609V.965zm17.749 9.715l8.882 10.336h-4.376l-7.413-8.769h-3.82v8.769h-3.298V.964h3.298v8.278h3.82l7.234-8.278h4.392l-8.719 9.715z" fill="#003790"/><path d="M0 24.492C0 38.028 10.972 49 24.508 49c.327 0 .653 0 .98-.016v-9.29h-.98c-8.392 0-15.201-6.81-15.201-15.202 0-8.393 6.809-15.185 15.201-15.185h.98V.017c-.278 0-.539-.017-.8-.017h-.262C10.924.033 0 10.989 0 24.492z" fill="#FC5055"/><path d="M29.407.49v12.736h-4.899c-6.237 0-11.282 5.045-11.282 11.266a11.275 11.275 0 0011.282 11.282h4.899V48.51C40.59 46.24 49 36.362 49 24.492 49 12.638 40.591 2.759 29.407.49z" fill="#003790"/><path d="M68.855 28.606c3.56 0 6.27 1.503 7.429 2.63l-1.943 2.35c-.98-.881-2.988-1.992-5.535-1.992-4.082 0-6.793 2.94-6.793 6.956 0 4.017 2.596 6.956 6.793 6.956 2.857 0 4.963-1.306 5.976-2.286l1.812 2.416c-1.127 1.258-3.984 2.858-7.74 2.858-6.106 0-10.057-4.213-10.057-9.944 0-5.731 4.049-9.944 10.058-9.944zM94.8 32.035h-6.793V48.07h-3.119V32.035h-6.825v-2.988h16.736v2.988zm12.033 6.075c2.988 0 3.935-1.372 3.935-3.038 0-1.649-.947-3.037-3.935-3.037h-6.106v6.074h6.106zm7.201-3.07c0 3.396-2.286 6.057-7.054 6.057h-6.253v6.972h-3.135V29.047h9.16c4.996 0 7.282 2.613 7.282 5.993zm6.303 5.42h6.547l-3.249-7.592-3.298 7.593zm9.829 7.61l-2.057-4.768h-8.997l-2.057 4.767h-3.429l8.262-19.022h3.445l8.262 19.022h-3.429zm23.937 0h-3.805l-5.91-7.43-5.976 7.43h-3.788l7.723-9.65-7.446-9.373h3.739l5.715 7.054 5.698-7.054h3.788l-7.445 9.307 7.707 9.715zm10.678-2.564c3.935 0 6.858-2.956 6.858-6.956 0-3.984-2.923-6.956-6.858-6.956-3.935 0-6.841 2.972-6.841 6.956 0 4 2.906 6.956 6.841 6.956zm0-16.9c5.813 0 10.058 4.213 10.058 9.944 0 5.731-4.245 9.944-10.058 9.944s-10.058-4.213-10.058-9.944c0-5.731 4.245-9.944 10.058-9.944zm24.182 16.459c2.204 0 3.037-1.24 3.037-2.58 0-1.437-.833-2.58-2.907-2.58h-7.331v5.16h7.201zm-7.201-13.03v5.046l6.139-.017c2.123 0 3.152-1.208 3.152-2.612 0-1.306-.997-2.417-2.956-2.417h-6.335zm13.454 10.516c0 2.792-1.796 5.518-6.449 5.518h-10.124V29.047h9.536c3.853 0 6.074 2.384 6.074 5.078 0 1.519-.702 2.907-2.384 4.017 1.714.572 3.347 1.796 3.347 4.408zm7.838-2.091h6.547l-3.249-7.592-3.298 7.593zm9.845 7.61l-2.073-4.768h-8.98l-2.074 4.767h-3.429l8.262-19.022h3.461l8.262 19.022h-3.429zm20.263-19.023h3.135V48.07h-3.135v-8.294h-11.005v8.294h-3.118V29.047h3.118v7.74h11.005v-7.74zm22.01 0h2.874V48.07h-3.119V33.831L243.759 48.07h-2.858V29.047h3.135V43.22l11.136-14.173zm10.613 16.018h11.561v3.004h-14.679V29.047h14.401v2.988h-11.283v4.948h10.385v2.988h-10.385v5.094z" fill="#FC5055"/></svg>