<svg width="191" height="49" fill="none" xmlns="http://www.w3.org/2000/svg"><path fill-rule="evenodd" clip-rule="evenodd" d="M72.512 17.254a182.544 182.544 0 012.076-3.076c.277-.384.537-.77.775-1.148.24-.378.486-.752.747-1.124h.15v8.39h3.81V6.056h-3.81l-4.268 6.491a38.8 38.8 0 01-.717 1.078c-.237.348-.48.722-.714 1.107h-.153V6.055H66.6v14.241h3.808a81.435 81.435 0 002.104-3.043v.001zm14.961-2.87h5.672v5.91h3.81V6.057h-3.81v5.416h-5.67V6.055h-3.81v14.241h3.808v-5.912zm16.888 3.06v-3.497h2.429c.636 0 1.144.146 1.522.437.374.292.565.73.565 1.311 0 .621-.191 1.068-.565 1.338-.378.273-.876.41-1.492.41h-2.459zm6.85 1.76c.985-.731 1.475-1.888 1.475-3.479 0-1.458-.507-2.588-1.513-3.395-1.013-.804-2.366-1.21-4.066-1.21h-2.746V6.054h-3.811v14.241h6.725c1.642 0 2.955-.365 3.935-1.093h.001zm48.706-4.092a4.393 4.393 0 01-.863 1.427c-.347.38-.767.688-1.236.903a4.264 4.264 0 01-1.471.378V8.616c1.249.1 2.212.567 2.888 1.412.674.847 1.013 1.89 1.013 3.132 0 .74-.11 1.391-.333 1.952h.002zm-7.148 2.68a4.625 4.625 0 01-1.527-.378 3.817 3.817 0 01-1.259-.905 4.292 4.292 0 01-.856-1.413 5.387 5.387 0 01-.316-1.936c0-1.242.345-2.286 1.036-3.132.691-.845 1.666-1.313 2.922-1.412v9.176zm8.97-9.889a7.254 7.254 0 00-2.391-1.484 9.79 9.79 0 00-3.001-.628V.435l-3.578 1.37V5.79a9.323 9.323 0 00-2.983.655 8.02 8.02 0 00-2.416 1.515 6.921 6.921 0 00-1.604 2.244 6.868 6.868 0 00-.584 2.865c0 1.147.182 2.171.541 3.074a6.605 6.605 0 001.544 2.33 7.01 7.01 0 002.399 1.516c.996.37 2.044.58 3.105.622v6.036l3.603-1.372v-4.69a9.258 9.258 0 002.959-.641 7.306 7.306 0 002.374-1.516 6.998 6.998 0 001.586-2.3c.386-.893.584-1.912.584-3.06a7.244 7.244 0 00-.569-2.908 6.764 6.764 0 00-1.569-2.258v.001zm16.776 9.54a4.309 4.309 0 01-1.473.376V8.616c1.248.1 2.211.569 2.887 1.412.674.847 1.01 1.892 1.01 3.132 0 .739-.105 1.391-.326 1.952a4.485 4.485 0 01-.861 1.428 3.9 3.9 0 01-1.237.904zm-5.048.35a4.6 4.6 0 01-1.529-.38 3.799 3.799 0 01-1.26-.906 4.26 4.26 0 01-.855-1.411 5.431 5.431 0 01-.316-1.936c0-1.24.346-2.285 1.036-3.132.691-.843 1.666-1.313 2.926-1.41v9.174h-.002zm8.938.637a6.95 6.95 0 001.585-2.298c.387-.895.581-1.913.581-3.062 0-1.066-.187-2.037-.567-2.909a6.805 6.805 0 00-1.569-2.258 7.269 7.269 0 00-2.391-1.484 9.774 9.774 0 00-3.002-.626V.435l-3.573 1.37v3.988a9.257 9.257 0 00-2.987.656 7.894 7.894 0 00-2.414 1.514 6.878 6.878 0 00-1.604 2.241 6.893 6.893 0 00-.585 2.866c0 1.15.178 2.172.542 3.075a6.559 6.559 0 001.544 2.328 6.97 6.97 0 002.399 1.518c.928.355 1.964.564 3.105.624v6.032l3.603-1.368v-4.69a9.27 9.27 0 002.957-.642 7.353 7.353 0 002.376-1.517z" fill="#1D1C1B"/><mask id="a" style="mask-type:alpha" maskUnits="userSpaceOnUse" x="51" y="0" width="16" height="21"><path d="M66.031 0h-14.87v20.31h14.87V0z" fill="#fff"/></mask><g mask="url(#a)"><path fill-rule="evenodd" clip-rule="evenodd" d="M51.161 3.316h5.546V20.31h3.962V3.316h5.362V0h-14.87v3.316z" fill="#1D1C1B"/></g><path fill-rule="evenodd" clip-rule="evenodd" d="M119.092 13.379l4.985 6.932h4.493l-5.606-7.63 5.579-6.551h-4.345l-5.106 6.05V6.053h-3.778v14.258h3.778v-6.932zm20.064 1.544c-.125.49-.326.958-.598 1.385a2.894 2.894 0 01-.983.93 2.644 2.644 0 01-1.341.335c-1.025 0-1.808-.385-2.353-1.15-.543-.764-.813-1.849-.813-3.248 0-1.24.263-2.272.783-3.085.527-.815 1.287-1.226 2.291-1.226 1.066 0 1.868.406 2.413 1.212.543.804.813 1.86.813 3.16a6.39 6.39 0 01-.212 1.687zm3.498 1.385c.351-.922.525-1.968.525-3.133 0-1.124-.171-2.146-.51-3.055a6.73 6.73 0 00-1.423-2.333 6.07 6.07 0 00-2.2-1.471 7.578 7.578 0 00-2.812-.51c-1.016 0-1.956.171-2.814.51a6.39 6.39 0 00-2.217 1.456c-.616.63-1.096 1.411-1.436 2.331-.337.921-.508 1.966-.508 3.133 0 1.124.166 2.142.493 3.055.329.913.793 1.69 1.393 2.331a6.167 6.167 0 002.172 1.488c.846.349 1.799.521 2.857.521 1.014 0 1.956-.17 2.814-.51a6.237 6.237 0 002.215-1.469c.619-.643 1.104-1.423 1.451-2.344zM64.25 40.144c-1.116 1.27-2.438 1.916-3.925 1.916-.827 0-1.56-.177-2.182-.52a4.55 4.55 0 01-1.562-1.438 6.916 6.916 0 01-.947-2.187c-.22-.889-.33-1.802-.323-2.718 0-.984.113-1.902.335-2.73.22-.828.548-1.555.975-2.16a4.532 4.532 0 011.547-1.399c.603-.327 1.312-.493 2.105-.493.78 0 1.488.144 2.114.432.624.285 1.227.75 1.787 1.378l.1.114 1.588-1.589-.085-.1a6.512 6.512 0 00-2.37-1.792c-.897-.39-1.941-.588-3.109-.588-1.062 0-2.055.21-2.953.629a6.709 6.709 0 00-2.327 1.79 8.306 8.306 0 00-1.505 2.812c-.352 1.09-.532 2.338-.532 3.71 0 1.39.18 2.645.532 3.735.353 1.091.853 2.038 1.492 2.81a6.48 6.48 0 002.315 1.78c.896.408 1.89.614 2.953.614 1.256 0 2.341-.226 3.233-.673a7.46 7.46 0 002.348-1.864l.09-.105-1.596-1.474-.098.11zm2.426-7.462h4.06v11.207h2.143V32.682h4.084v-1.856H66.676v1.856zm20.32 4.53c0 1.627-.298 2.885-.888 3.74-.584.85-1.41 1.264-2.517 1.264a3.208 3.208 0 01-1.723-.515 4.784 4.784 0 01-1.315-1.176V34.14a5.455 5.455 0 011.33-1.19 3.353 3.353 0 011.866-.529c.968 0 1.732.412 2.334 1.254.606.847.913 2.037.913 3.54v-.004zm.618-5.038a4.43 4.43 0 00-1.61-1.217c-1.183-.512-2.426-.507-3.728-.062-.58.198-1.149.543-1.697 1.03v-1.15h-2.171V49l2.145-.996v-5.176c.491.455.988.784 1.48.975a5.01 5.01 0 003.693-.067 4.924 4.924 0 001.714-1.212c.506-.544.923-1.261 1.233-2.133.31-.865.469-1.921.469-3.138 0-1.16-.14-2.17-.415-3.002-.274-.835-.65-1.534-1.113-2.077zm11.61 6.183v2.291a6.822 6.822 0 01-1.553 1.14 4.41 4.41 0 01-1.876.532c-.882 0-1.561-.207-2.018-.617-.453-.407-.682-1.015-.682-1.805 0-.799.262-1.392.805-1.812.545-.423 1.227-.637 2.026-.637.712 0 1.328.084 1.833.252.481.161.973.382 1.466.656zm-2.606-7.767a9.1 9.1 0 00-2.316.276c-.675.178-1.332.418-1.963.717l-.124.058.744 1.72.133-.066a10.043 10.043 0 011.594-.618 6.096 6.096 0 011.71-.23c.948 0 1.665.213 2.133.635.462.419.698 1.11.698 2.047v1.349a6.278 6.278 0 00-1.626-.585c-1.292-.252-2.612-.227-3.686.123-.57.18-1.102.468-1.566.847a3.85 3.85 0 00-1.032 1.341 4.14 4.14 0 00-.366 1.76c0 .749.133 1.395.394 1.916.26.521.61.955 1.034 1.287a4.21 4.21 0 001.425.73c.515.15 1.04.226 1.557.226.623 0 1.282-.098 1.965-.292.627-.18 1.266-.54 1.899-1.073v1.13h2.143V34.87c0-1.413-.415-2.494-1.24-3.21-.818-.71-1.999-1.068-3.51-1.068v-.002zm16.489.236h-2.408l-2.558 4.463-2.537-4.463h-2.456l3.778 6.322-4.068 6.741h2.43l2.798-4.908 2.731 4.835.042.073h2.532l-4.09-6.819 3.806-6.244zm10.521 6.531c0 .665-.071 1.302-.217 1.89a4.813 4.813 0 01-.664 1.539 3.447 3.447 0 01-1.098 1.044 2.954 2.954 0 01-1.53.386c-1.12 0-1.971-.43-2.606-1.315-.635-.887-.958-2.096-.958-3.595 0-.67.08-1.303.233-1.89a5.095 5.095 0 01.664-1.527 3.25 3.25 0 011.081-1.018c.432-.249.93-.373 1.481-.373.586 0 1.112.123 1.561.365.453.24.833.578 1.134 1.003.305.431.536.95.687 1.539.154.593.232 1.25.232 1.952zm.527-4.977a5.141 5.141 0 00-1.818-1.334 5.631 5.631 0 00-2.258-.456 5.65 5.65 0 00-2.242.443 5.086 5.086 0 00-1.805 1.307c-.511.574-.913 1.29-1.195 2.13-.282.839-.425 1.81-.425 2.887 0 1.043.134 1.991.398 2.818.268.835.651 1.556 1.141 2.144a4.98 4.98 0 001.777 1.361c.69.31 1.464.471 2.299.471a5.67 5.67 0 002.283-.458 5.043 5.043 0 001.818-1.345c.508-.589.913-1.315 1.204-2.155.294-.841.443-1.813.443-2.889 0-1.04-.144-1.984-.43-2.807a6.266 6.266 0 00-1.19-2.117zm10.95 3.128c-.347.315-.855.476-1.514.476h-3.419V32.68h3.497c.69 0 1.195.153 1.497.449.307.302.455.695.455 1.205a1.518 1.518 0 01-.516 1.174zm-4.931 2.384h3.495c.75 0 1.369.181 1.839.535.465.352.689.848.689 1.522 0 .648-.191 1.146-.586 1.521-.387.372-1.041.563-1.942.563h-3.497v-4.14h.002zm6.11-1.09c.469-.236.831-.57 1.084-.997a3.15 3.15 0 00.45-1.617c0-1.088-.389-1.933-1.158-2.509-.755-.566-1.726-.853-2.885-.853h-5.748v13.063h5.642c1.441 0 2.598-.342 3.441-1.013.851-.68 1.284-1.683 1.284-2.98a3.24 3.24 0 00-.671-2.022 3.239 3.239 0 00-1.438-1.073h-.001zm11.959 1.555v2.291c-.45.445-.973.827-1.556 1.14a4.414 4.414 0 01-1.874.532c-.88 0-1.561-.207-2.018-.617-.453-.407-.68-1.013-.68-1.805 0-.8.262-1.392.802-1.812.544-.423 1.225-.637 2.025-.637.714 0 1.329.084 1.832.252.483.161.976.382 1.469.656zm-2.607-7.767c-.847 0-1.625.093-2.314.276-.689.182-1.348.423-1.963.717l-.124.058.74 1.72.135-.066a9.945 9.945 0 011.594-.618 6.08 6.08 0 011.708-.23c.95 0 1.669.213 2.134.635.463.419.697 1.11.697 2.047v1.349a6.195 6.195 0 00-1.624-.585c-1.287-.252-2.608-.227-3.686.123a4.714 4.714 0 00-1.564.847 3.86 3.86 0 00-1.036 1.343 4.173 4.173 0 00-.365 1.756c0 .751.133 1.395.395 1.918.262.521.609.955 1.034 1.287.42.332.899.576 1.423.73a5.61 5.61 0 001.559.226c.623 0 1.284-.098 1.963-.292.631-.18 1.268-.54 1.901-1.074v1.132h2.145v-9.02c0-1.415-.418-2.494-1.243-3.21-.817-.71-1.998-1.07-3.509-1.07zm15.908 5.497h-6.419v-5.285h-2.147v13.089h2.147v-5.893h6.417v5.893h2.145V30.802h-2.145l.002 5.285zm8.532 1.742l-1.701 2.613v-9.641h-2.142v13.088h2.075l4.757-7.108 1.597-2.407v9.515h2.145V30.801h-2.078l-4.653 7.028z" fill="#1D1C1B"/><mask id="b" style="mask-type:alpha" maskUnits="userSpaceOnUse" x="179" y="30" width="12" height="15"><path d="M190.108 44.15V30.59h-10.993v13.56h10.995-.002z" fill="#fff"/></mask><g mask="url(#b)"><path fill-rule="evenodd" clip-rule="evenodd" d="M181.27 36.428a5.374 5.374 0 01.332-1.521c.194-.493.446-.93.75-1.295a3.192 3.192 0 011.03-.827c.38-.19.788-.287 1.217-.287.586 0 1.092.11 1.506.325.416.216.765.507 1.039.864.275.357.483.79.618 1.285.124.46.192.95.202 1.456h-6.694zm8.841.772c0-.99-.123-1.896-.362-2.698a6.254 6.254 0 00-1.046-2.092 4.681 4.681 0 00-1.709-1.348c-.672-.314-1.456-.474-2.332-.474a5.19 5.19 0 00-2.199.472 5.088 5.088 0 00-1.755 1.361 6.712 6.712 0 00-1.167 2.14 8.75 8.75 0 00-.428 2.823c0 1.096.149 2.076.441 2.912.293.846.698 1.561 1.208 2.13a4.94 4.94 0 001.776 1.292 5.31 5.31 0 002.112.432c1.723 0 3.201-.576 4.392-1.715l.104-.098-1.291-1.383-.107.094a4.832 4.832 0 01-1.348.864 3.904 3.904 0 01-1.567.329 3.266 3.266 0 01-2.436-1.053c-.648-.68-1.026-1.684-1.129-2.982h8.841V37.2h.002z" fill="#1D1C1B"/></g><path fill-rule="evenodd" clip-rule="evenodd" d="M3.384 3.375h33.725v27.682c-.068 2.498-.967 4.292-2.697 5.382l-14.166 7.037L6.07 36.439c-1.73-1.09-2.623-2.884-2.686-5.382V3.375z" fill="#FFE500"/><path fill-rule="evenodd" clip-rule="evenodd" d="M3.384 3.375h33.724v27.68c-.068 2.5-.966 4.293-2.696 5.384l-14.166 7.036L6.07 36.44c-1.73-1.091-2.623-2.884-2.686-5.383V3.375zM36.159 39.31c2.766-1.605 4.202-4.322 4.313-8.152V0H0v31.158c.118 3.83 1.56 6.547 4.322 8.152l12.15 6.042 3.764 1.868 3.776-1.868 12.147-6.044v.002z" fill="#1D1C1B"/><path fill-rule="evenodd" clip-rule="evenodd" d="M30.363 15.695V10.05H10.112v5.645h7.312V33.95h5.635V15.695h7.304z" fill="#1D1C1B"/></svg>