<svg width="20" height="12" fill="none" xmlns="http://www.w3.org/2000/svg"><path d="M19.41 1.148c.14-.515-.07-.773-.633-.773h-2.074c-.422 0-.715.2-.879.598l-.351.703c-.282.61-.575 1.172-.88 1.687a12.3 12.3 0 01-1.335 1.828c-.235.258-.422.434-.563.528a.875.875 0 01-.386.105c-.094 0-.176-.047-.246-.14-.07-.094-.106-.247-.106-.457V1.148c0-.28-.047-.48-.14-.597-.07-.117-.212-.176-.422-.176h-3.27a.61.61 0 00-.387.14.477.477 0 00-.14.352c0 .117.082.281.246.492.164.188.281.364.351.528.14.281.223.61.246.984V5.93c0 .304-.035.515-.105.633-.047.093-.14.14-.281.14-.235 0-.563-.258-.985-.773-.422-.516-.843-1.184-1.265-2.004a20.23 20.23 0 01-1.196-2.742C4.516.879 4.4.668 4.258.55 4.14.434 3.953.375 3.695.375H1.621c-.469 0-.703.2-.703.598 0 .234.082.644.246 1.23.258.727.598 1.512 1.02 2.356a21.156 21.156 0 002.003 3.27c.844 1.218 1.829 2.155 2.954 2.812 1.125.656 2.238.984 3.34.984.632 0 1.054-.07 1.265-.21.164-.118.234-.317.211-.599v-.914c0-.562.012-.925.035-1.09 0-.234.035-.386.106-.457.093-.07.234-.105.421-.105.446 0 1.137.445 2.075 1.336a16 16 0 01.949 1.055c.375.398.633.644.773.738.211.164.446.246.704.246h2.074c.281 0 .48-.07.597-.21.141-.165.176-.388.106-.669-.211-.656-1.16-1.851-2.848-3.586l-.316-.351c-.14-.164-.211-.305-.211-.422 0-.117.07-.282.21-.492.024-.024.247-.34.669-.95.492-.773.914-1.453 1.265-2.039.493-.82.774-1.406.844-1.758z" fill="#212F60"/></svg>