<svg width="20" height="14" fill="none" xmlns="http://www.w3.org/2000/svg"><path d="M19.586 2.36a2.436 2.436 0 00-.633-1.09 2.437 2.437 0 00-1.09-.633c-.61-.164-2.039-.282-4.289-.352L10.375.25l-3.2.035c-2.25.07-3.679.188-4.288.352a2.437 2.437 0 00-1.09.633 2.437 2.437 0 00-.633 1.09C1 2.991.883 3.952.813 5.241A49.79 49.79 0 00.776 7l.035 1.758c.07 1.312.188 2.285.352 2.918.117.398.328.75.633 1.054.305.305.668.516 1.09.633.61.164 2.039.282 4.289.352l3.199.035 3.2-.035c2.25-.07 3.679-.188 4.288-.352a2.437 2.437 0 001.09-.633 2.45 2.45 0 00.633-1.054c.164-.633.281-1.606.352-2.918L19.973 7l-.035-1.758c-.07-1.289-.188-2.25-.352-2.883zM8.406 9.882v-5.73L13.434 7 8.406 9.883z" fill="#212F60"/></svg>