<svg width="19" height="19" fill="none" xmlns="http://www.w3.org/2000/svg"><path d="M13.851 11.386c-.238-.12-1.398-.686-1.614-.767-.217-.077-.374-.117-.532.12-.155.233-.61.764-.748.92-.14.154-.276.166-.51.061-.239-.12-1-.368-1.902-1.178-.706-.628-1.175-1.4-1.315-1.639-.139-.235-.015-.368.102-.485.108-.108.238-.272.359-.415.114-.142.151-.238.235-.392.077-.167.037-.297-.021-.415-.06-.117-.532-1.283-.73-1.747-.189-.46-.387-.402-.532-.402-.136-.013-.294-.013-.451-.013a.894.894 0 00-.632.285c-.216.238-.828.807-.828 1.957 0 1.154.847 2.27.964 2.437.121.155 1.667 2.53 4.04 3.55.565.238 1.004.38 1.348.498.565.18 1.082.155 1.49.096.451-.074 1.398-.572 1.596-1.129.201-.56.201-1.023.142-1.128-.058-.109-.213-.167-.45-.272l-.011.058zM9.549 17.22h-.012a7.934 7.934 0 01-4.005-1.092l-.284-.17-2.97.773.799-2.889-.192-.296a7.817 7.817 0 01-1.2-4.163c0-4.31 3.529-7.826 7.87-7.826a7.81 7.81 0 015.56 2.303 7.753 7.753 0 012.304 5.536c-.006 4.308-3.531 7.824-7.867 7.824H9.55zm6.695-14.49C14.438.986 12.064 0 9.537 0 4.327 0 .083 4.225.08 9.416c0 1.658.433 3.275 1.262 4.707L0 19l5.016-1.308a9.578 9.578 0 004.521 1.147h.003c5.214 0 9.457-4.224 9.46-9.42a9.33 9.33 0 00-2.767-6.658l.011-.03z" fill="#27AF1A"/></svg>